<?xml version="1.0" encoding="utf-8"?>
<!-- Generator: Adobe Illustrator 26.0.3, SVG Export Plug-In . SVG Version: 6.00 Build 0)  -->
<svg version="1.1" xmlns="http://www.w3.org/2000/svg" xmlns:xlink="http://www.w3.org/1999/xlink" x="0px" y="0px"
	 viewBox="0 0 240 328" style="enable-background:new 0 0 240 328;" xml:space="preserve">
<style type="text/css">
	.st0{fill:#FFFFFF;}
	.st1{fill:#5A6166;}
	.st2{fill:#ACB0B2;}
	.st3{fill:#00689D;}
</style>
<g id="Hintergrund_weiß">
	<path class="st0" d="M204.9,35.1C182.2,12.5,152.1,0,120,0c-0.6,0-1.1,0-1.7,0C86.9,0.4,57.3,13,35,35.5C12.7,57.9,0.3,87.6,0,119
		c-0.2,25,7.2,49.1,21.5,69.6l34.3,50l56,81.6c1.9,2.7,4.9,4.3,8.2,4.3c3.3,0,6.4-1.6,8.2-4.3l56-81.6l34.3-50
		c14.1-20.2,21.5-43.9,21.5-68.5C240,87.9,227.5,57.8,204.9,35.1z"/>
</g>
<g id="Icon">
	<g>
		<path class="st1" d="M178,66H62c-4.4,0-8,3.6-8,8v2h132v-2C186,69.6,182.4,66,178,66z"/>
		<path class="st1" d="M54,166c0,4.4,3.6,8,8,8h22l4-6.3V138c0-5.5,4.5-10,10-10h44c5.5,0,10,4.5,10,10v29.7l4,6.3h22
			c4.4,0,8-3.6,8-8V84H54V166z M160,96c0-1.1,0.9-2,2-2h12c1.1,0,2,0.9,2,2v32c0,1.1-0.9,2-2,2h-12c-1.1,0-2-0.9-2-2V96z M136,96
			c0-1.1,0.9-2,2-2h12c1.1,0,2,0.9,2,2v14c0,1.1-0.9,2-2,2h-12c-1.1,0-2-0.9-2-2V96z M112,96c0-1.1,0.9-2,2-2h12c1.1,0,2,0.9,2,2v14
			c0,1.1-0.9,2-2,2h-12c-1.1,0-2-0.9-2-2V96z M88,96c0-1.1,0.9-2,2-2h12c1.1,0,2,0.9,2,2v14c0,1.1-0.9,2-2,2H90c-1.1,0-2-0.9-2-2V96
			z M64,96c0-1.1,0.9-2,2-2h12c1.1,0,2,0.9,2,2v32c0,1.1-0.9,2-2,2H66c-1.1,0-2-0.9-2-2V96z"/>
		<path class="st2" d="M142.9,162c0.4,0,0.7,0,1.1,0.1V138c0-1.1-0.9-2-2-2H98c-1.1,0-2,0.9-2,2v24.1c0.4,0,0.7-0.1,1.1-0.1H142.9z"
			/>
		<path class="st2" d="M156.1,188.9l-8.2-12.9l-1.3-2.1l-0.8-1.3l-1.1-1.8c-0.4-0.6-1-0.9-1.7-0.9H142H98h-0.9
			c-0.7,0-1.3,0.3-1.7,0.9l-1.1,1.8l-0.8,1.3l-1.3,2.1l-8.2,12.9c-0.8,1.3,0.1,3.1,1.7,3.1h68.7C155.9,192,156.9,190.3,156.1,188.9z
			"/>
	</g>
</g>
<g id="Pin_und_Zahl">
	<path class="st3" d="M118.4,8C57.8,8.9,8.5,58.5,8,119c-0.2,24.2,7.3,46.6,20.1,65l34.3,50l56,81.6c0.8,1.2,2.5,1.2,3.3,0l56-81.6
		l34.3-50c12.7-18.1,20.1-40.2,20.1-64C232,57.6,181,7.1,118.4,8z M194.9,184c-11.1,12.9-25.4,22.9-41.7,28.8
		c-10.1-5.6-21.3-8.8-33.1-8.8s-23,3.1-33.1,8.8c-16.3-5.8-30.7-15.9-41.7-28.8c-15.3-17.9-24.4-41.4-23.6-67.1
		c1.6-52.4,44.6-94.7,97.1-95.4c55-0.8,99.9,43.6,99.9,98.5C218.5,144.4,209.6,166.8,194.9,184z"/>
	<g>
		<path class="st0" d="M97.3,229.8l-9.8,0.9V224l10.7-3.1h8.9V269h-9.8V229.8z"/>
		<path class="st0" d="M126.2,241.2c1.7-0.9,3.4-1.7,5.1-2.2c1.7-0.5,3.5-0.8,5.4-0.8c2,0,3.8,0.3,5.6,0.9c1.8,0.6,3.3,1.5,4.6,2.8
			c1.3,1.2,2.3,2.8,3.1,4.7c0.8,1.9,1.2,4.2,1.2,6.7c0,2.6-0.4,4.9-1.3,7c-0.8,2-2,3.7-3.5,5.1c-1.5,1.4-3.3,2.4-5.4,3.2
			c-2.1,0.7-4.4,1.1-6.9,1.1c-3.4,0-6.3-0.6-8.6-1.7c-2.3-1.1-4.2-2.7-5.6-4.8c-1.4-2-2.5-4.4-3.1-7.1c-0.6-2.7-0.9-5.7-0.9-8.9
			c0-3.8,0.4-7.4,1.1-10.7c0.7-3.3,1.9-6.2,3.6-8.6c1.7-2.5,3.8-4.4,6.4-5.8c2.6-1.4,5.8-2.1,9.6-2.1c2.5,0,4.7,0.2,6.5,0.7
			c1.8,0.4,3.3,0.9,4.3,1.2l-1.8,7.3c-1.7-0.6-3.3-1-4.7-1.2s-2.7-0.3-3.7-0.3c-2.1,0-3.9,0.5-5.3,1.4s-2.6,2.1-3.4,3.4
			c-0.9,1.4-1.5,2.8-1.9,4.3s-0.7,2.9-0.8,4.1L126.2,241.2z M141.7,253.7c0-1.2-0.1-2.2-0.4-3.2c-0.2-1-0.6-1.8-1.2-2.5
			c-0.6-0.7-1.3-1.3-2.2-1.7c-0.9-0.4-2.1-0.6-3.5-0.6c-1.2,0-2.3,0.1-3.3,0.4c-1,0.3-1.8,0.6-2.6,0.9c-0.7,0.3-1.3,0.7-1.8,1
			c-0.5,0.3-0.8,0.5-1,0.6v1.3c0,1.2,0.1,2.6,0.3,4s0.6,2.7,1.2,3.9c0.6,1.2,1.4,2.2,2.5,2.9c1.1,0.8,2.5,1.1,4.3,1.1
			c2.4,0,4.3-0.7,5.6-2.2C141,258,141.7,256.1,141.7,253.7z"/>
	</g>
</g>
</svg>
