<?xml version="1.0" encoding="utf-8"?>
<!-- Generator: Adobe Illustrator 26.0.3, SVG Export Plug-In . SVG Version: 6.00 Build 0)  -->
<svg version="1.1" xmlns="http://www.w3.org/2000/svg" xmlns:xlink="http://www.w3.org/1999/xlink" x="0px" y="0px"
	 viewBox="0 0 240 328" style="enable-background:new 0 0 240 328;" xml:space="preserve">
<style type="text/css">
	.st0{fill:#FFFFFF;}
	.st1{fill:#879900;}
	.st2{fill:#507666;}
	.st3{fill:#DDA63A;}
</style>
<g id="Hintergrund_weiß">
	<path class="st0" d="M204.9,35.1C182.2,12.5,152.1,0,120,0c-0.6,0-1.1,0-1.7,0C86.9,0.4,57.3,13,35,35.5C12.7,57.9,0.3,87.6,0,119
		c-0.2,25,7.2,49.1,21.5,69.6l34.3,50l56,81.6c1.9,2.7,4.9,4.3,8.2,4.3c3.3,0,6.4-1.6,8.2-4.3l56-81.6l34.3-50
		c14.1-20.2,21.5-43.9,21.5-68.5C240,87.9,227.5,57.8,204.9,35.1z"/>
</g>
<g id="Icon">
	<g>
		<path class="st1" d="M137.8,70.4c-6.6,0-12,5.4-12,12V65.1l4.1-4.1c4.7-4.7,4.7-12.3,0-17l-10-10l-10,10c-4.7,4.7-4.7,12.3,0,17
			l4.4,4.4v17c0-6.6-5.4-12-12-12H88v14.2c0,6.6,5.4,12,12,12h14.2V120h11.6V96.5H140c6.6,0,12-5.4,12-12V70.4H137.8z"/>
		<path class="st2" d="M194.2,147.1l-2.3-4.2c-1.5-2.6-4.2-4.1-7-4.1c-1.3,0-2.5,0.3-3.7,0.9l-25.3,13.4c-1.2,0.6-2.4,0.9-3.7,0.9
			h-28c-1.1,0-2-0.9-2-2v-4c0-1.1,0.9-2,2-2h24c4.4,0,8-3.6,8-8v-2c0-4.4-3.6-8-8-8h-22.2h-11.6h-14.1c-1.4,0-2.7,0.4-3.9,1
			l-37.3,21.1c-3.8,2.2-5.2,7-3.1,10.8l14.2,25.9c1.5,2.7,4.2,4.1,7,4.1c1.4,0,2.8-0.4,4-1.1l15-8.8c1.2-0.7,2.6-1.1,4-1.1h49.7
			c1.4,0,2.7-0.4,3.9-1l37.3-21.1C194.9,155.7,196.3,150.9,194.2,147.1z"/>
	</g>
</g>
<g id="Pin_und_Zahl">
	<path class="st3" d="M118.4,8C57.8,8.9,8.5,58.5,8,119c-0.2,24.2,7.3,46.6,20.1,65l34.3,50l56,81.6c0.8,1.2,2.5,1.2,3.3,0l56-81.6
		l34.3-50c12.7-18.1,20.1-40.2,20.1-64C232,57.6,181,7.1,118.4,8z M194.9,184c-11.1,12.9-25.4,22.9-41.7,28.8
		c-10.1-5.6-21.3-8.8-33.1-8.8s-23,3.1-33.1,8.8c-16.3-5.8-30.7-15.9-41.7-28.8c-15.3-17.9-24.4-41.4-23.6-67.1
		c1.6-52.4,44.6-94.7,97.1-95.4c55-0.8,99.9,43.6,99.9,98.5C218.5,144.4,209.6,166.8,194.9,184z"/>
	<g>
		<path class="st0" d="M118.3,261.5h20.1v7.4h-34v-6.5c2.1-1.9,4.3-3.9,6.9-6.1c2.5-2.2,4.9-4.6,7.1-7c2.2-2.4,4.1-4.9,5.6-7.4
			c1.5-2.5,2.2-4.9,2.2-7.1c0-2.3-0.6-4-1.9-5.1c-1.3-1.2-3.1-1.7-5.6-1.7c-1.2,0-2.9,0.2-5,0.7c-2.1,0.5-4.4,1.4-7,2.9l-3.1-6.2
			c3-2.1,6-3.6,8.9-4.4c3-0.8,5.6-1.2,7.9-1.2c4.9,0,8.8,1.2,11.7,3.7c2.8,2.5,4.2,6,4.2,10.7c0,2.6-0.6,5.2-1.9,7.7
			c-1.2,2.5-2.8,4.9-4.6,7.2c-1.8,2.3-3.8,4.4-5.9,6.5c-2.1,2-4,3.9-5.8,5.5L118.3,261.5z"/>
	</g>
</g>
</svg>
