<?xml version="1.0" encoding="utf-8"?>
<!-- Generator: Adobe Illustrator 26.0.3, SVG Export Plug-In . SVG Version: 6.00 Build 0)  -->
<svg version="1.1" xmlns="http://www.w3.org/2000/svg" xmlns:xlink="http://www.w3.org/1999/xlink" x="0px" y="0px"
	 viewBox="0 0 240 328" style="enable-background:new 0 0 240 328;" xml:space="preserve">
<style type="text/css">
	.st0{fill:#FFFFFF;}
	.st1{fill:#ACB0B2;}
	.st2{fill:#5A6166;}
	.st3{fill:#00689D;}
</style>
<g id="Hintergrund_weiß">
	<path class="st0" d="M204.9,35.1C182.2,12.5,152.1,0,120,0c-0.6,0-1.1,0-1.7,0C86.9,0.4,57.3,13,35,35.5C12.7,57.9,0.3,87.6,0,119
		c-0.2,25,7.2,49.1,21.5,69.6l34.3,50l56,81.6c1.9,2.7,4.9,4.3,8.2,4.3c3.3,0,6.4-1.6,8.2-4.3l56-81.6l34.3-50
		c14.1-20.2,21.5-43.9,21.5-68.5C240,87.9,227.5,57.8,204.9,35.1z"/>
</g>
<g id="Icon">
	<g>
		<path class="st1" d="M143.2,107.3c-1.7-2.6-2.7-5.8-2.7-9.2v-5.7c0-9.3,7.2-16.5,16.5-16.5c3.6,0,6.9,1.1,9.5,3c0-0.2,0-0.4,0-0.6
			c-0.6-4.3-1.8-8.7-3.7-13.1c-4.4-10.4-12.7-18.8-23.2-23.1c-6.7-2.8-13.3-4-19.7-4c-23.7,0-43.2,17.5-46.5,40.4c0,0.2,0,0.3,0,0.4
			c2.7-1.9,5.9-3,9.5-3c9.3,0,16.5,7.3,16.5,16.5v5.7c0,3.5-1,6.6-2.7,9.2c6.5,2,11.2,8.1,11.2,15.3v23.2
			c4.5,5.7,8.4,10.6,10.4,13.2c0.4,0.5,1,0.8,1.6,0.8s1.2-0.3,1.6-0.8c2.1-2.6,5.9-7.5,10.4-13.2v-23.2
			C132,115.4,136.7,109.3,143.2,107.3z M120,97c-8.3,0-15-6.7-15-15c0-8.3,6.7-15,15-15s15,6.7,15,15C135,90.3,128.3,97,120,97z"/>
		<path class="st1" d="M73.5,78.4c0,0.2,0,0.3-0.1,0.5c0,0,0,0,0,0C73.5,78.7,73.5,78.5,73.5,78.4z"/>
		<g>
			<path class="st2" d="M58,157.7v-35.2c0-7.2,4.7-13.2,11.2-15.3c-1.7-2.6-2.7-5.8-2.7-9.2v-0.1c-0.3-1.1-0.5-2.2-0.7-3.3H48
				c-4.4,0-8,3.6-8,8v35.2c0,4.4,3.6,8,8,8h0.5v26.4c0,1.1,0.9,2,2,2h13c1.1,0,2-0.9,2-2v-0.9C61,168.5,58,163.4,58,157.7z"/>
			<path class="st2" d="M57,86.6c4.1,0,7.3-2.6,8.2-6.4c0.1-0.8,0.2-1.6,0.3-2.4v-5.4c0-4.8-3.7-8.5-8.5-8.5s-8.5,3.7-8.5,8.5v5.7
				C48.5,82.9,52.2,86.6,57,86.6z"/>
			<path class="st2" d="M92,114.6h-8.6H82h-3.6H78h-4h0c-0.1,0-0.3,0-0.4,0c-4.2,0.2-7.6,3.7-7.6,8v23.2v12c0,2.7,1.4,5.2,3.5,6.6
				c1.2,0.8,2.5,1.3,4,1.4c0.2,0,0.3,0,0.5,0h0.5v26.4c0,1.1,0.9,2,2,2h13c1.1,0,2-0.9,2-2v-26.4H92c4.4,0,8-3.6,8-8v-9.2v-6.5v-6.5
				v-13C100,118.2,96.4,114.6,92,114.6z"/>
			<path class="st2" d="M78,105c1.1,0.8,2.5,1.3,4,1.5c0.3,0,0.7,0.1,1,0.1c4.8,0,8.5-3.7,8.5-8.5v-5.7c0-4.8-3.7-8.5-8.5-8.5
				c-3.8,0-6.8,2.3-8,5.5c-0.3,0.9-0.5,1.9-0.5,3v1.8v2.8v1.2c0,2.5,1,4.7,2.6,6.2C77.4,104.5,77.7,104.8,78,105z"/>
			<path class="st2" d="M192,94.6h-17.8H174c-0.2,0-0.3,0-0.5,0v3.4c0,0,0,0,0,0c0,3.4-1,6.6-2.7,9.2c6.5,2,11.2,8.1,11.2,15.3v35.2
				c0,5.7-3,10.7-7.5,13.5v0.9c0,1.1,0.9,2,2,2h13c1.1,0,2-0.9,2-2v-26.4h0.5c4.4,0,8-3.6,8-8v-35.2C200,98.2,196.4,94.6,192,94.6z"
				/>
			<path class="st2" d="M183,86.6c4.8,0,8.5-3.7,8.5-8.5v-5.7c0-4.8-3.7-8.5-8.5-8.5s-8.5,3.7-8.5,8.5v5.2v0.5
				c0,0.8,0.1,1.6,0.3,2.4C175.8,84,179,86.6,183,86.6z"/>
			<path class="st2" d="M157,106.6c0.3,0,0.7,0,1-0.1c1.5-0.2,2.9-0.7,4-1.5c0.3-0.2,0.6-0.5,0.9-0.8c1.6-1.5,2.6-3.7,2.6-6.2v-1.2
				v-2.8v-1.8c0-1.1-0.2-2.1-0.5-3c-1.2-3.3-4.2-5.5-8-5.5c-4.8,0-8.5,3.7-8.5,8.5v5.7C148.5,102.9,152.2,106.6,157,106.6z"/>
			<path class="st2" d="M166.4,114.6c-0.1,0-0.3,0-0.4,0h0h-4h-0.4H158h-1.4H148c-4.4,0-8,3.6-8,8v13v6.5v6.5v9.2c0,4.4,3.6,8,8,8
				h0.5v26.4c0,1.1,0.9,2,2,2h13c1.1,0,2-0.9,2-2v-26.4h0.5c0.2,0,0.3,0,0.5,0c1.5-0.1,2.8-0.6,4-1.4c2.1-1.4,3.5-3.9,3.5-6.6v-12
				v-23.2C174,118.3,170.6,114.8,166.4,114.6z"/>
		</g>
	</g>
</g>
<g id="Pin_und_Zahl">
	<path class="st3" d="M118.4,8C57.8,8.9,8.5,58.5,8,119c-0.2,24.2,7.3,46.6,20.1,65l34.3,50l56,81.6c0.8,1.2,2.5,1.2,3.3,0l56-81.6
		l34.3-50c12.7-18.1,20.1-40.2,20.1-64C232,57.6,181,7.1,118.4,8z M194.9,184c-11.1,12.9-25.4,22.9-41.7,28.8
		c-10.1-5.6-21.3-8.8-33.1-8.8s-23,3.1-33.1,8.8c-16.3-5.8-30.7-15.9-41.7-28.8c-15.3-17.9-24.4-41.4-23.6-67.1
		c1.6-52.4,44.6-94.7,97.1-95.4c55-0.8,99.9,43.6,99.9,98.5C218.5,144.4,209.6,166.8,194.9,184z"/>
	<g>
		<path class="st0" d="M97.3,229.8l-9.8,0.9V224l10.7-3.1h8.9V269h-9.8V229.8z"/>
		<path class="st0" d="M126.2,241.2c1.7-0.9,3.4-1.7,5.1-2.2c1.7-0.5,3.5-0.8,5.4-0.8c2,0,3.8,0.3,5.6,0.9c1.8,0.6,3.3,1.5,4.6,2.8
			c1.3,1.2,2.3,2.8,3.1,4.7c0.8,1.9,1.2,4.2,1.2,6.7c0,2.6-0.4,4.9-1.3,7c-0.8,2-2,3.7-3.5,5.1c-1.5,1.4-3.3,2.4-5.4,3.2
			c-2.1,0.7-4.4,1.1-6.9,1.1c-3.4,0-6.3-0.6-8.6-1.7c-2.3-1.1-4.2-2.7-5.6-4.8c-1.4-2-2.5-4.4-3.1-7.1c-0.6-2.7-0.9-5.7-0.9-8.9
			c0-3.8,0.4-7.4,1.1-10.7c0.7-3.3,1.9-6.2,3.6-8.6c1.7-2.5,3.8-4.4,6.4-5.8c2.6-1.4,5.8-2.1,9.6-2.1c2.5,0,4.7,0.2,6.5,0.7
			c1.8,0.4,3.3,0.9,4.3,1.2l-1.8,7.3c-1.7-0.6-3.3-1-4.7-1.2s-2.7-0.3-3.7-0.3c-2.1,0-3.9,0.5-5.3,1.4s-2.6,2.1-3.4,3.4
			c-0.9,1.4-1.5,2.8-1.9,4.3s-0.7,2.9-0.8,4.1L126.2,241.2z M141.7,253.7c0-1.2-0.1-2.2-0.4-3.2c-0.2-1-0.6-1.8-1.2-2.5
			c-0.6-0.7-1.3-1.3-2.2-1.7c-0.9-0.4-2.1-0.6-3.5-0.6c-1.2,0-2.3,0.1-3.3,0.4c-1,0.3-1.8,0.6-2.6,0.9c-0.7,0.3-1.3,0.7-1.8,1
			c-0.5,0.3-0.8,0.5-1,0.6v1.3c0,1.2,0.1,2.6,0.3,4s0.6,2.7,1.2,3.9c0.6,1.2,1.4,2.2,2.5,2.9c1.1,0.8,2.5,1.1,4.3,1.1
			c2.4,0,4.3-0.7,5.6-2.2C141,258,141.7,256.1,141.7,253.7z"/>
	</g>
</g>
</svg>
