<?xml version="1.0" encoding="utf-8"?>
<!-- Generator: Adobe Illustrator 26.0.3, SVG Export Plug-In . SVG Version: 6.00 Build 0)  -->
<svg version="1.1" xmlns="http://www.w3.org/2000/svg" xmlns:xlink="http://www.w3.org/1999/xlink" x="0px" y="0px"
	 viewBox="0 0 240 328" style="enable-background:new 0 0 240 328;" xml:space="preserve">
<style type="text/css">
	.st0{fill:#FFFFFF;}
	.st1{fill:#519DC2;}
	.st2{fill:#005A8C;}
	.st3{fill:#FCC30B;}
</style>
<g id="Hintergrund_weiß">
	<path class="st0" d="M204.9,35.1C182.2,12.5,152.1,0,120,0c-0.6,0-1.1,0-1.7,0C86.9,0.4,57.3,13,35,35.5C12.7,57.9,0.3,87.6,0,119
		c-0.2,25,7.2,49.1,21.5,69.6l34.3,50l56,81.6c1.9,2.7,4.9,4.3,8.2,4.3c3.3,0,6.4-1.6,8.2-4.3l56-81.6l34.3-50
		c14.1-20.2,21.5-43.9,21.5-68.5C240,87.9,227.5,57.8,204.9,35.1z"/>
</g>
<g id="Icon">
	<g>
		<path class="st1" d="M192.7,105.7h-14.1c-1.3-10.9-5.6-20.8-12-29l10-10c2.8-2.8,2.8-7.4,0-10.3c-2.8-2.8-7.4-2.8-10.3,0l-10,10
			c-8.2-6.4-18.2-10.7-29-12V40.3c0-4-3.3-7.3-7.3-7.3s-7.3,3.3-7.3,7.3v14.1c-10.9,1.3-20.8,5.6-29,12l-10-10
			c-2.8-2.8-7.4-2.8-10.3,0c-2.8,2.8-2.8,7.4,0,10.3l10,10c-6.4,8.2-10.7,18.2-12,29H47.3c-4,0-7.3,3.3-7.3,7.3c0,4,3.3,7.3,7.3,7.3
			h14.1c1.3,10.9,5.6,20.8,12,29l-10,10c-2.8,2.8-2.8,7.4,0,10.3c1.4,1.4,3.3,2.1,5.1,2.1s3.7-0.7,5.1-2.1l10-10
			c8.2,6.4,18.2,10.7,29,12v14.1c0,4,3.3,7.3,7.3,7.3s7.3-3.3,7.3-7.3v-14.1c10.9-1.3,20.8-5.6,29-12l10,10c1.4,1.4,3.3,2.1,5.1,2.1
			s3.7-0.7,5.1-2.1c2.8-2.8,2.8-7.4,0-10.3l-10-10c6.4-8.2,10.7-18.2,12-29h14.1c4,0,7.3-3.3,7.3-7.3
			C200,109,196.7,105.7,192.7,105.7z M147.6,98.9l-20.4,55.4c-1.5,4-5.1,6.5-9.3,6.5c-2.9,0-5.7-1.3-7.6-3.4c-1.9-2.2-2.7-5-2.3-7.9
			l2.6-18.8c-1,0.3-2,0.5-3,0.5c-2.9,0-5.6-1.3-7.6-3.5c-1.9-2.2-2.7-5.1-2.3-7.9l6.4-45c0.7-4.9,4.9-8.6,9.9-8.6h14.7
			c3.1,0,5.9,1.4,7.8,3.8c1.9,2.4,2.6,5.5,1.9,8.5l-1.7,7.2c0.5-0.1,1.1-0.1,1.7-0.1c3.3,0,6.3,1.6,8.2,4.3
			C148.3,92.4,148.8,95.9,147.6,98.9z"/>
		<path class="st2" d="M138.3,93.5c-0.3,0-0.6,0.1-0.9,0.2l-8.5,4.1c-0.3,0.1-0.6,0.2-0.9,0.2c-1.2,0-2.2-1.1-1.9-2.5l4.5-19
			c0.3-1.3-0.7-2.5-1.9-2.5h-14.7c-1,0-1.8,0.7-2,1.7l-6.4,45c-0.2,1.3,0.8,2.3,2,2.3c0.3,0,0.6-0.1,0.9-0.2l8.7-4.4
			c0.3-0.2,0.6-0.2,0.9-0.2c1.1,0,2.2,1,2,2.3l-4.2,30c-0.2,1.4,0.9,2.3,2,2.3c0.8,0,1.5-0.4,1.8-1.3l20.4-55.4
			C140.6,94.8,139.6,93.5,138.3,93.5z"/>
	</g>
</g>
<g id="Pin_und_Zahl">
	<path class="st3" d="M118.4,8C57.8,8.9,8.5,58.5,8,119c-0.2,24.2,7.3,46.6,20.1,65l34.3,50l56,81.6c0.8,1.2,2.5,1.2,3.3,0l56-81.6
		l34.3-50c12.7-18.1,20.1-40.2,20.1-64C232,57.6,181,7.1,118.4,8z M194.9,184c-11.1,12.9-25.4,22.9-41.7,28.8
		c-10.1-5.6-21.3-8.8-33.1-8.8s-23,3.1-33.1,8.8c-16.3-5.8-30.7-15.9-41.7-28.8c-15.3-17.9-24.4-41.4-23.6-67.1
		c1.6-52.4,44.6-94.7,97.1-95.4c55-0.8,99.9,43.6,99.9,98.5C218.5,144.4,209.6,166.8,194.9,184z"/>
	<g>
		<path class="st0" d="M106.7,228.3v-7.4h31.1v6.4L119.2,269h-9.8l18.5-40.7H106.7z"/>
	</g>
</g>
</svg>
