<?xml version="1.0" encoding="utf-8"?>
<!-- Generator: Adobe Illustrator 26.0.3, SVG Export Plug-In . SVG Version: 6.00 Build 0)  -->
<svg version="1.1" xmlns="http://www.w3.org/2000/svg" xmlns:xlink="http://www.w3.org/1999/xlink" x="0px" y="0px"
	 viewBox="0 0 240 328" style="enable-background:new 0 0 240 328;" xml:space="preserve">
<style type="text/css">
	.st0{fill:#FFFFFF;}
	.st1{fill:none;}
	.st2{fill:#519DC2;}
	.st3{fill:#005A8C;}
	.st4{fill:#FD6925;}
</style>
<g id="Hintergrund_weiß">
	<path class="st0" d="M204.9,35.1C182.2,12.5,152.1,0,120,0c-0.6,0-1.1,0-1.7,0C86.9,0.4,57.3,13,35,35.5C12.7,57.9,0.3,87.6,0,119
		c-0.2,25,7.2,49.1,21.5,69.6l34.3,50l56,81.6c1.9,2.7,4.9,4.3,8.2,4.3c3.3,0,6.4-1.6,8.2-4.3l56-81.6l34.3-50
		c14.1-20.2,21.5-43.9,21.5-68.5C240,87.9,227.5,57.8,204.9,35.1z"/>
</g>
<g id="Icon">
	<g>
		<path class="st1" d="M99.7,157.4c-0.6-0.6-1-1-1.4-1.4H95c-0.3,0.3-0.8,0.8-1.4,1.4c-2.3,2.4-5.6,5.8-10.7,7.8h27.5
			C105.3,163.1,102,159.7,99.7,157.4z"/>
		<path class="st1" d="M146.4,157.4c-0.6-0.6-1-1-1.4-1.4h-3.4c-0.3,0.3-0.8,0.8-1.4,1.4c-2.3,2.4-5.6,5.8-10.7,7.8h27.5
			C152,163.1,148.7,159.7,146.4,157.4z"/>
		<path class="st2" d="M159,141.4c-0.4-0.4-0.8-0.8-1.2-1.2c-0.6-0.6-1.3-1.3-1.9-1.9c-1-0.9-2.1-1.8-3.3-2.6
			c-2.4-1.5-5.3-2.7-9.3-2.7c-7.5,0-11.4,4-14.5,7.2c-2.7,2.8-4.7,4.8-8.8,4.8c-4.1,0-6.1-2-8.8-4.8c-3.1-3.2-7-7.2-14.5-7.2
			c-4,0-6.9,1.1-9.3,2.6c-1.2,0.8-2.3,1.7-3.3,2.6c-0.7,0.7-1.3,1.3-1.9,1.9c-0.4,0.4-0.8,0.8-1.2,1.2c-1.8,1.8-3.5,3.1-6,3.5
			l3.7,13.3c3.2-1,5.6-2.9,7.5-4.7c0.6-0.6,1.1-1.1,1.7-1.7c0.4-0.4,0.8-0.8,1.1-1.2c1.1-1.1,2.2-2,3.4-2.6c1.2-0.6,2.5-1,4.3-1
			c1.8,0,3.1,0.4,4.3,1c1.6,0.9,2.9,2.2,4.5,3.8c0.1,0.1,0.1,0.1,0.2,0.2c1.3,1.3,2.7,2.8,4.5,4c2.5,1.7,5.6,3,9.8,3
			c4.3,0,7.4-1.3,9.8-3c1.8-1.2,3.2-2.7,4.5-4c0.1-0.1,0.1-0.1,0.2-0.2c1.6-1.6,2.9-2.9,4.5-3.8c1.2-0.6,2.5-1,4.3-1
			c1.8,0,3.1,0.4,4.3,1c1.2,0.6,2.3,1.5,3.4,2.6c0.4,0.4,0.7,0.7,1.1,1.1c0.5,0.5,1.1,1.1,1.7,1.7c1.9,1.9,4.3,3.7,7.5,4.7l3.7-13.3
			C162.5,144.5,160.8,143.2,159,141.4z"/>
		<g>
			<path class="st3" d="M132,44c0-1.1-0.9-2-2-2h-20c-1.1,0-2,0.9-2,2v12h24V44z"/>
			<path class="st3" d="M120,80.1c0.9,0,1.7,0.1,2.5,0.3l28.5,7.4V66c0-1.1-0.9-2-2-2H91c-1.1,0-2,0.9-2,2v21.8l28.5-7.4
				C118.3,80.2,119.1,80.1,120,80.1z"/>
			<path class="st3" d="M84.5,128c3.2-1.7,7.1-3,12.1-3c10.9,0,16.8,6,20.3,9.6c2.3,2.4,2.4,2.4,3.1,2.4c0.7,0,0.8,0,3.1-2.4
				c3.5-3.6,9.4-9.6,20.3-9.6c5,0,9,1.3,12.2,3l7.4-19.7c1.5-4-0.4-8.4-4.2-10.1c-0.4-0.2-0.8-0.3-1.3-0.5l-2.6-0.7l-4.2-1.1
				l-30.1-7.9c-0.2,0-0.4-0.1-0.5-0.1c-0.2,0-0.4,0-0.5,0.1L89.3,96l-4.2,1.1l-2.6,0.7c-0.4,0.1-0.9,0.3-1.3,0.5
				c-3.8,1.7-5.7,6.1-4.2,10.1L84.5,128z"/>
			<path class="st3" d="M197.1,94.8h-8.3c-0.9,0-1.7,0.6-1.9,1.5l-8.8,31.7l-1.6,5.9l-2.1,7.6l-4.9,17.4l-1.2,4.1l-1.1,4l-1.3,4.7
				c-0.2,0.9-1,1.5-1.9,1.5H76.1c-0.9,0-1.7-0.6-1.9-1.5l-1.3-4.7l-1.1-4l-1.2-4.1l-4.9-17.4l-2.1-7.6l-1.6-5.9l-8.8-31.7
				c-0.2-0.9-1-1.5-1.9-1.5h-8.3c-1.3,0-2.3,1.3-1.9,2.5l7.9,28.3l1.1,3.9l1.1,3.9l4.2,15.2l2.1,7.4l1.9,6.8l5.9,21
				c0.2,0.9,1,1.5,1.9,1.5H173c0.9,0,1.7-0.6,1.9-1.5l5.9-21l1.9-6.8l2.1-7.4l4.2-15.2l1.1-3.9l1.1-3.9l7.9-28.3
				C199.4,96.1,198.5,94.8,197.1,94.8z"/>
		</g>
	</g>
</g>
<g id="Pin_und_Zahl">
	<path class="st4" d="M118.4,8C57.8,8.9,8.5,58.5,8,119c-0.2,24.2,7.3,46.6,20.1,65l34.3,50l56,81.6c0.8,1.2,2.5,1.2,3.3,0l56-81.6
		l34.3-50c12.7-18.1,20.1-40.2,20.1-64C232,57.6,181,7.1,118.4,8z M194.9,184c-11.1,12.9-25.4,22.9-41.7,28.8
		c-10.1-5.6-21.3-8.8-33.1-8.8s-23,3.1-33.1,8.8c-16.3-5.8-30.7-15.9-41.7-28.8c-15.3-17.9-24.4-41.4-23.6-67.1
		c1.6-52.4,44.6-94.7,97.1-95.4c55-0.8,99.9,43.6,99.9,98.5C218.5,144.4,209.6,166.8,194.9,184z"/>
	<g>
		<path class="st0" d="M125.7,248.5c-3.5,2-7,3-10.5,3c-2,0-3.9-0.3-5.6-0.9s-3.3-1.5-4.5-2.8c-1.3-1.3-2.3-2.8-3-4.8
			c-0.7-1.9-1.1-4.2-1.1-6.8c0-2.6,0.4-4.9,1.3-7c0.8-2.1,2-3.8,3.5-5.2c1.5-1.4,3.3-2.5,5.4-3.2c2.1-0.7,4.4-1.1,6.9-1.1
			c3.4,0,6.2,0.6,8.5,1.8c2.3,1.2,4.2,2.8,5.6,4.8c1.4,2,2.5,4.4,3.1,7.2c0.6,2.8,0.9,5.7,0.9,9c0,3.8-0.4,7.4-1.1,10.7
			c-0.7,3.3-1.9,6.2-3.6,8.6c-1.7,2.4-3.8,4.3-6.4,5.7c-2.6,1.4-5.8,2.1-9.5,2.1c-2.5,0-4.7-0.2-6.6-0.6c-1.9-0.4-3.4-0.8-4.4-1.2
			l1.8-7.2c1.7,0.6,3.3,0.9,4.8,1.1c1.5,0.2,2.8,0.2,3.9,0.2c2.1,0,3.8-0.5,5.2-1.4c1.4-0.9,2.5-2.1,3.4-3.4s1.5-2.8,1.9-4.3
			c0.4-1.5,0.7-2.9,0.8-4.1L125.7,248.5z M110.3,236c0,1.2,0.1,2.2,0.3,3.2c0.2,1,0.6,1.8,1.2,2.5c0.6,0.7,1.3,1.3,2.2,1.7
			c0.9,0.4,2.1,0.6,3.5,0.6c1.2,0,2.3-0.1,3.3-0.4c1-0.3,1.8-0.6,2.6-0.9c0.7-0.3,1.3-0.7,1.8-1c0.4-0.3,0.8-0.5,0.9-0.6v-1.4
			c0-1.2-0.1-2.5-0.3-3.9c-0.2-1.4-0.6-2.6-1.1-3.8c-0.6-1.2-1.4-2.2-2.4-3c-1.1-0.8-2.5-1.2-4.3-1.2c-2.5,0-4.4,0.7-5.7,2.2
			C110.9,231.6,110.3,233.6,110.3,236z"/>
	</g>
</g>
</svg>
