<?xml version="1.0" encoding="utf-8"?>
<!-- Generator: Adobe Illustrator 26.0.3, SVG Export Plug-In . SVG Version: 6.00 Build 0)  -->
<svg version="1.1" xmlns="http://www.w3.org/2000/svg" xmlns:xlink="http://www.w3.org/1999/xlink" x="0px" y="0px"
	 viewBox="0 0 240 328" style="enable-background:new 0 0 240 328;" xml:space="preserve">
<style type="text/css">
	.st0{fill:#FFFFFF;}
	.st1{fill:#5A6166;}
	.st2{fill:#ACB0B2;}
	.st3{fill:#26BDE2;}
</style>
<g id="Hintergrund_weiß">
	<path class="st0" d="M204.9,35.1C182.2,12.5,152.1,0,120,0c-0.6,0-1.1,0-1.7,0C86.9,0.4,57.3,13,35,35.5C12.7,57.9,0.3,87.6,0,119
		c-0.2,25,7.2,49.1,21.5,69.6l34.3,50l56,81.6c1.9,2.7,4.9,4.3,8.2,4.3c3.3,0,6.4-1.6,8.2-4.3l56-81.6l34.3-50
		c14.1-20.2,21.5-43.9,21.5-68.5C240,87.9,227.5,57.8,204.9,35.1z"/>
</g>
<g id="Icon">
	<g>
		<path class="st1" d="M120,118c-1.2,0-2.5-0.1-3.7-0.2c-15.6-1.7-28.2-14.2-30-29.8C85.8,84,86,79.9,87,76H62c-1.1,0-2,0.9-2,2v4.1
			c0,1,0.7,1.8,1.6,2C66.4,84.9,70,89,70,94v14.2c0,1-0.8,1.8-1.8,1.8H62c-1.1,0-2,0.9-2,2v17.1c0,1,0.7,1.8,1.6,2
			c4.8,0.8,8.4,4.9,8.4,9.9v37c0,1.1,0.9,2,2,2h16c1.1,0,2-0.9,2-2v-36.9c0-4.6,3.1-8.8,7.6-9.9c6.6-1.5,12.4,3.4,12.4,9.7v37
			c0,1.1,0.9,2,2,2h16c1.1,0,2-0.9,2-2v-36.9c0-4.6,3.1-8.8,7.6-9.9c6.6-1.5,12.4,3.4,12.4,9.7v37c0,1.1,0.9,2,2,2h16
			c1.1,0,2-0.9,2-2v-37c0-5,3.6-9.1,8.4-9.9c1-0.2,1.6-1,1.6-2c0-3.9,0-13.1,0-17.2c0-1.1-0.9-2-2-2h-6.2c-1,0-1.8-0.8-1.8-1.8V94
			c0-5,3.6-9.1,8.4-9.9c1-0.2,1.6-1,1.6-2l0-3.9c0-1.5-0.8-2.3-1.8-2.3H153c0.6,2.6,1,5.3,1,8C154,102.7,138.7,118,120,118z"/>
		<path class="st1" d="M150,68h28c1.1,0,2-0.9,2-2v-4c0-1.1-0.9-2-2-2h-33.7c2.9,3.7,3,3.8,3.1,3.9C148.4,65.2,149.2,66.6,150,68z"
			/>
		<path class="st1" d="M95.7,60H62c-1.1,0-2,0.9-2,2v4c0,1.1,0.9,2,2,2h28c0.8-1.4,1.6-2.8,2.6-4.1C92.7,63.8,92.7,63.7,95.7,60z"/>
		<path class="st2" d="M144.7,76c-0.9-2.7-2.2-5.1-3.8-7.4c0,0-0.2-0.3-0.5-0.6c-1-1.3-3.5-4.4-6.3-8c-4.5-5.6-9.9-12.5-12.5-15.9
			c-0.4-0.5-1-0.8-1.6-0.8c-0.6,0-1.2,0.3-1.6,0.8c-2.6,3.3-8.1,10.2-12.5,15.9c-2.9,3.6-5.3,6.7-6.3,8c-0.3,0.4-0.5,0.6-0.5,0.6
			c-1.6,2.2-2.9,4.7-3.8,7.4c-1.1,3.4-1.5,7.2-1.1,11.1c1.4,11.9,11,21.4,22.9,22.7c1,0.1,1.9,0.2,2.9,0.2c14.4,0,26-11.6,26-26
			C146,81.2,145.5,78.5,144.7,76z M120,95.6c0,1.2-1.1,2.2-2.3,2c-3.1-0.5-5.9-2-8.1-4.1l0,0c-2.1-2.1-3.6-5-4.1-8.1
			c-0.2-1.2,0.7-2.3,2-2.3c0,0,3.7,0,4.6,0c0.9,0,1.2,0.5,1.3,1c0.2,1.5,0.9,2.8,1.9,3.8l0,0c1,1,2.3,1.7,3.8,1.9
			c0.5,0.1,1,0.4,1,1.3C120,91.9,120,95.6,120,95.6z"/>
	</g>
</g>
<g id="Pin_und_Zahl">
	<path class="st3" d="M118.4,8C57.8,8.9,8.5,58.5,8,119c-0.2,24.2,7.3,46.6,20.1,65l34.3,50l56,81.6c0.8,1.2,2.5,1.2,3.3,0l56-81.6
		l34.3-50c12.7-18.1,20.1-40.2,20.1-64C232,57.6,181,7.1,118.4,8z M194.9,184c-11.1,12.9-25.4,22.9-41.7,28.8
		c-10.1-5.6-21.3-8.8-33.1-8.8s-23,3.1-33.1,8.8c-16.3-5.8-30.7-15.9-41.7-28.8c-15.3-17.9-24.4-41.4-23.6-67.1
		c1.6-52.4,44.6-94.7,97.1-95.4c55-0.8,99.9,43.6,99.9,98.5C218.5,144.4,209.6,166.8,194.9,184z"/>
	<g>
		<path class="st0" d="M114.6,241.2c1.7-0.9,3.4-1.7,5.1-2.2c1.7-0.5,3.5-0.8,5.4-0.8c2,0,3.8,0.3,5.6,0.9c1.8,0.6,3.3,1.5,4.6,2.8
			c1.3,1.2,2.3,2.8,3.1,4.7c0.8,1.9,1.2,4.2,1.2,6.7c0,2.6-0.4,4.9-1.3,7c-0.8,2-2,3.7-3.5,5.1c-1.5,1.4-3.3,2.4-5.4,3.2
			c-2.1,0.7-4.4,1.1-6.9,1.1c-3.4,0-6.3-0.6-8.6-1.7c-2.3-1.1-4.2-2.7-5.6-4.8c-1.4-2-2.5-4.4-3.1-7.1c-0.6-2.7-0.9-5.7-0.9-8.9
			c0-3.8,0.4-7.4,1.1-10.7c0.7-3.3,1.9-6.2,3.6-8.6c1.7-2.5,3.8-4.4,6.4-5.8c2.6-1.4,5.8-2.1,9.6-2.1c2.5,0,4.7,0.2,6.5,0.7
			c1.8,0.4,3.3,0.9,4.3,1.2l-1.8,7.3c-1.7-0.6-3.3-1-4.7-1.2c-1.5-0.2-2.7-0.3-3.7-0.3c-2.1,0-3.9,0.5-5.3,1.4
			c-1.4,0.9-2.6,2.1-3.4,3.4c-0.9,1.4-1.5,2.8-1.9,4.3s-0.7,2.9-0.8,4.1L114.6,241.2z M130,253.7c0-1.2-0.1-2.2-0.4-3.2
			c-0.2-1-0.6-1.8-1.2-2.5c-0.6-0.7-1.3-1.3-2.2-1.7c-0.9-0.4-2.1-0.6-3.5-0.6c-1.2,0-2.3,0.1-3.3,0.4c-1,0.3-1.8,0.6-2.6,0.9
			c-0.7,0.3-1.3,0.7-1.8,1c-0.5,0.3-0.8,0.5-1,0.6v1.3c0,1.2,0.1,2.6,0.3,4s0.6,2.7,1.2,3.9c0.6,1.2,1.4,2.2,2.5,2.9
			c1.1,0.8,2.5,1.1,4.3,1.1c2.4,0,4.3-0.7,5.6-2.2C129.4,258,130,256.1,130,253.7z"/>
	</g>
</g>
</svg>
