<?xml version="1.0" encoding="utf-8"?>
<!-- Generator: Adobe Illustrator 26.0.3, SVG Export Plug-In . SVG Version: 6.00 Build 0)  -->
<svg version="1.1" xmlns="http://www.w3.org/2000/svg" xmlns:xlink="http://www.w3.org/1999/xlink" x="0px" y="0px"
	 viewBox="0 0 240 328" style="enable-background:new 0 0 240 328;" xml:space="preserve">
<style type="text/css">
	.st0{fill:#FFFFFF;}
	.st1{fill:#507666;}
	.st2{fill:#879900;}
	.st3{fill:#A21942;}
</style>
<g id="Hintergrund_weiß">
	<path class="st0" d="M204.9,35.1C182.2,12.5,152.1,0,120,0c-0.6,0-1.1,0-1.7,0C86.9,0.4,57.3,13,35,35.5C12.7,57.9,0.3,87.6,0,119
		c-0.2,25,7.2,49.1,21.5,69.6l34.3,50l56,81.6c1.9,2.7,4.9,4.3,8.2,4.3c3.3,0,6.4-1.6,8.2-4.3l56-81.6l34.3-50
		c14.1-20.2,21.5-43.9,21.5-68.5C240,87.9,227.5,57.8,204.9,35.1z"/>
</g>
<g id="Icon">
	<g>
		<path class="st1" d="M178,62H62c-4.4,0-8,3.6-8,8v2h132v-2C186,65.6,182.4,62,178,62z"/>
		<path class="st1" d="M54,162c0,4.4,3.6,8,8,8h2v-23c0-5.2,4.1-9.3,9.3-9.3c1.2,0,2.4,0.2,3.6,0.7c4.7,1.8,9.8,2.7,15.5,2.7
			c8.4,0,17-1.8,26-3.8c9.5-2,19.3-4.2,29.4-4.2c0,0,0,0,0,0h0c7.6,0,14.6,1.2,21.1,3.7c4.2,1.6,7.2,5.8,7.2,10.3v23h2
			c4.4,0,8-3.6,8-8V80H54V162z M160,92c0-1.1,0.9-2,2-2h12c1.1,0,2,0.9,2,2v32c0,1.1-0.9,2-2,2h-12c-1.1,0-2-0.9-2-2V92z M136,92
			c0-1.1,0.9-2,2-2h12c1.1,0,2,0.9,2,2v14c0,1.1-0.9,2-2,2h-12c-1.1,0-2-0.9-2-2V92z M112,92c0-1.1,0.9-2,2-2h12c1.1,0,2,0.9,2,2v14
			c0,1.1-0.9,2-2,2h-12c-1.1,0-2-0.9-2-2V92z M88,92c0-1.1,0.9-2,2-2h12c1.1,0,2,0.9,2,2v14c0,1.1-0.9,2-2,2H90c-1.1,0-2-0.9-2-2V92
			z M64,92c0-1.1,0.9-2,2-2h12c1.1,0,2,0.9,2,2v32c0,1.1-0.9,2-2,2H66c-1.1,0-2-0.9-2-2V92z"/>
		<g>
			<path class="st2" d="M166,144.2c-6.1-2.3-12.2-3.2-18.3-3.2c-16.2,0-32.5,6.2-48.7,7.6V170v24.7c16.2-1.5,32.5-7.6,48.7-7.6
				c6.1,0,12.2,0.9,18.3,3.2c0.3,0.1,0.5,0.1,0.7,0.1c0.7,0,1.3-0.5,1.3-1.3c0-6.3,0-12.7,0-19c0-7.7,0-15.3,0-23
				C168,145.9,167.1,144.6,166,144.2z"/>
			<path class="st2" d="M73.3,145.7c-0.7,0-1.3,0.5-1.3,1.3c0,7.7,0,15.3,0,23c0,6.3,0,12.7,0,19c0,1.1,0.9,2.4,2,2.8
				c5.7,2.1,11.3,3,17,3.2v-25v-21c-5.7-0.1-11.3-1-17-3.2C73.7,145.7,73.5,145.7,73.3,145.7z"/>
		</g>
	</g>
</g>
<g id="Pin_und_Zahl">
	<path class="st3" d="M118.4,8C57.8,8.9,8.5,58.5,8,119c-0.2,24.2,7.3,46.6,20.1,65l34.3,50l56,81.6c0.8,1.2,2.5,1.2,3.3,0l56-81.6
		l34.3-50c12.7-18.1,20.1-40.2,20.1-64C232,57.6,181,7.1,118.4,8z M194.9,184c-11.1,12.9-25.4,22.9-41.7,28.8
		c-10.1-5.6-21.3-8.8-33.1-8.8s-23,3.1-33.1,8.8c-16.3-5.8-30.7-15.9-41.7-28.8c-15.3-17.9-24.4-41.4-23.6-67.1
		c1.6-52.4,44.6-94.7,97.1-95.4c55-0.8,99.9,43.6,99.9,98.5C218.5,144.4,209.6,166.8,194.9,184z"/>
	<g>
		<path class="st0" d="M135.3,232.4c0,1.7-0.4,3.5-1.3,5.4c-0.8,1.9-2.5,3.9-5.1,5.8c2.2,1.2,4.1,2.8,5.5,4.8c1.4,2,2.2,4.4,2.2,7.3
			c0,2-0.4,3.8-1.3,5.5c-0.9,1.7-2.1,3.2-3.6,4.4c-1.6,1.2-3.5,2.2-5.7,2.9c-2.2,0.7-4.7,1-7.5,1c-2.8,0-5.3-0.3-7.5-0.9
			c-2.2-0.6-4.1-1.5-5.6-2.7c-1.5-1.2-2.7-2.6-3.5-4.2c-0.8-1.6-1.2-3.5-1.2-5.5c0-1.1,0.1-2.3,0.4-3.5c0.3-1.2,0.7-2.5,1.3-3.7
			c0.6-1.2,1.5-2.4,2.5-3.6c1.1-1.2,2.4-2.2,4-3.2c-2-1.3-3.4-2.6-4.4-4.1s-1.5-3.3-1.5-5.6c0-1.8,0.4-3.5,1.2-5.1
			c0.8-1.6,1.9-3,3.4-4.1c1.4-1.1,3.2-2,5.1-2.7c2-0.7,4.1-1,6.5-1c1.8,0,3.7,0.2,5.6,0.7c1.9,0.4,3.6,1.2,5.2,2.2
			c1.5,1,2.8,2.3,3.8,3.9C134.8,228.2,135.3,230.1,135.3,232.4z M118.6,262.2c1.3,0,2.5-0.2,3.5-0.6c1-0.4,1.9-0.9,2.6-1.6
			s1.2-1.4,1.6-2.2c0.4-0.8,0.5-1.7,0.5-2.7c0-2-0.9-3.7-2.7-5s-4.5-2.7-8.2-4.2c-2.1,1.5-3.6,3.1-4.3,4.7c-0.7,1.7-1.1,3.2-1.1,4.7
			c0,1.9,0.7,3.5,2,4.8S115.9,262.2,118.6,262.2z M112.3,232.9c0,1,0.2,1.8,0.7,2.5c0.5,0.7,1.1,1.3,1.9,1.9
			c0.8,0.6,1.8,1.1,2.9,1.6c1.1,0.5,2.3,1.1,3.5,1.7c1.9-1.4,3.1-2.7,3.8-3.9c0.7-1.2,1-2.4,1-3.6c0-0.7-0.1-1.4-0.4-2.1
			c-0.3-0.7-0.7-1.4-1.3-2s-1.3-1.1-2.2-1.5s-2-0.6-3.3-0.6c-1.2,0-2.2,0.2-3.1,0.6c-0.8,0.4-1.5,0.9-2.1,1.5
			c-0.5,0.6-0.9,1.2-1.2,1.9C112.5,231.7,112.3,232.3,112.3,232.9z"/>
	</g>
</g>
</svg>
