<?xml version="1.0" encoding="utf-8"?>
<!-- Generator: Adobe Illustrator 26.0.3, SVG Export Plug-In . SVG Version: 6.00 Build 0)  -->
<svg version="1.1" xmlns="http://www.w3.org/2000/svg" xmlns:xlink="http://www.w3.org/1999/xlink" x="0px" y="0px"
	 viewBox="0 0 240 328" style="enable-background:new 0 0 240 328;" xml:space="preserve">
<style type="text/css">
	.st0{fill:#FFFFFF;}
	.st1{fill:#ACB0B2;}
	.st2{fill:#5A6166;}
	.st3{fill:#00689D;}
</style>
<g id="Hintergrund_weiß">
	<path class="st0" d="M204.9,35.1C182.2,12.5,152.1,0,120,0c-0.6,0-1.1,0-1.7,0C86.9,0.4,57.3,13,35,35.5C12.7,57.9,0.3,87.6,0,119
		c-0.2,25,7.2,49.1,21.5,69.6l34.3,50l56,81.6c1.9,2.7,4.9,4.3,8.2,4.3c3.3,0,6.4-1.6,8.2-4.3l56-81.6l34.3-50
		c14.1-20.2,21.5-43.9,21.5-68.5C240,87.9,227.5,57.8,204.9,35.1z"/>
</g>
<g id="Icon">
	<g>
		<path class="st1" d="M174,58c0-4.4-3.6-8-8-8H74c-4.4,0-8,3.6-8,8v2h108V58z"/>
		<g>
			<path class="st2" d="M66,108.6c1.3,0.9,2.9,1.4,4.6,1.4c2.5,0,4.8-1.2,6.2-3c0.7-0.9,1.2-1.9,1.5-3c0.2-0.6,0.3-1.3,0.3-2v-4
				c0-3.2-1.9-5.9-4.6-7.2c-1-0.5-2.2-0.8-3.4-0.8c-1.7,0-3.3,0.5-4.6,1.4c-2.1,1.4-3.4,3.8-3.4,6.6v4c0,1.9,0.7,3.6,1.8,5
				C64.8,107.6,65.4,108.1,66,108.6z"/>
			<path class="st2" d="M120,110c2.5,0,4.8-1.2,6.2-3c1.1-1.4,1.8-3.1,1.8-5v-4c0-4.4-3.6-8-8-8s-8,3.6-8,8v4c0,1.9,0.7,3.6,1.8,5
				C115.2,108.8,117.5,110,120,110z"/>
			<path class="st2" d="M163.2,107c1.5,1.8,3.7,3,6.2,3c1.7,0,3.3-0.5,4.6-1.4c0.6-0.4,1.2-1,1.7-1.6c1.1-1.4,1.8-3.1,1.8-5v-4
				c0-2.7-1.4-5.1-3.4-6.6c-1.3-0.9-2.9-1.4-4.6-1.4c-1.2,0-2.4,0.3-3.4,0.8c-2.7,1.3-4.6,4-4.6,7.2v4c0,0.7,0.1,1.4,0.3,2
				C162,105.1,162.5,106.1,163.2,107z"/>
			<path class="st2" d="M197.6,141.9l-14-24.9c-0.2-0.3-0.4-0.6-0.6-0.9c-0.7-0.7-1.7-1.1-2.8-1.2v0h-1.5h-2.3H174h-1h-7.3h-3.4
				h-2.3h-1.5v0c-1,0-2,0.4-2.8,1.2c-0.2,0.2-0.5,0.5-0.6,0.9l-7.9,14.1l-2.6,4.6l-2.6-4.6l-7.9-14.1c-0.2-0.3-0.4-0.6-0.6-0.9
				c-0.7-0.7-1.7-1.1-2.8-1.2v0h-1.5H127h-3.4h-7.3H113h-2.3h-1.5v0c-1,0-2,0.4-2.8,1.2c-0.2,0.2-0.5,0.5-0.6,0.9l-7.9,14.1
				l-2.6,4.6l-2.6-4.6L84.8,117c-0.2-0.3-0.4-0.6-0.6-0.9c-0.7-0.7-1.7-1.1-2.8-1.2v0h-1.5h-2.3h-3.4H67h-1h-2.4h-2.3h-1.5v0
				c-1,0-2,0.4-2.8,1.2c-0.2,0.2-0.5,0.5-0.6,0.9l-14,24.9c-1.1,1.9-0.4,4.4,1.5,5.4c0.6,0.3,1.3,0.5,2,0.5c1.4,0,2.8-0.7,3.5-2
				l6.2-11.1V153c0,4.1,3.1,7.4,7,7.9V185c0,1.1,0.9,2,2,2h12c1.1,0,2-0.9,2-2v-24.1c3.9-0.5,7-3.9,7-7.9v-9v-9.2l5.2,9.2l0.9,1.5
				l0,0c0.1,0.3,0.3,0.5,0.4,0.7c0.2,0.3,0.5,0.6,0.8,0.8c0,0,0.1,0,0.1,0.1c0.1,0.1,0.2,0.2,0.4,0.3c0.6,0.3,1.3,0.5,2,0.5
				c0,0,0,0,0,0s0,0,0,0c0.7,0,1.3-0.2,2-0.5c0.1-0.1,0.2-0.2,0.4-0.3c0,0,0,0,0,0c0,0,0,0,0,0c0,0,0,0,0,0c0.3-0.2,0.5-0.5,0.8-0.8
				c0.2-0.2,0.3-0.5,0.4-0.7l0,0l0.9-1.5l5.2-9.2v9.2v9c0,4.1,3.1,7.4,7,7.9V185c0,1.1,0.9,2,2,2h12c1.1,0,2-0.9,2-2v-24.1
				c3.9-0.5,7-3.9,7-7.9v-9v-9.2l5.2,9.2l0.9,1.5l0,0c0.1,0.3,0.3,0.5,0.4,0.7c0.2,0.3,0.5,0.6,0.8,0.8c0,0,0.1,0,0.1,0.1
				c0.1,0.1,0.2,0.2,0.4,0.3c0.6,0.3,1.3,0.5,2,0.5c0,0,0,0,0,0s0,0,0,0c0.7,0,1.3-0.2,2-0.5c0.1-0.1,0.2-0.2,0.4-0.3c0,0,0,0,0,0
				c0,0,0,0,0,0c0,0,0,0,0,0c0.3-0.2,0.5-0.5,0.8-0.8c0.2-0.2,0.3-0.5,0.4-0.7l0,0l0.9-1.5l5.2-9.2v9.2v9c0,4.1,3.1,7.4,7,7.9V185
				c0,1.1,0.9,2,2,2h12c1.1,0,2-0.9,2-2v-24.1c3.9-0.5,7-3.9,7-7.9v-18.2l6.2,11.1c0.7,1.3,2.1,2,3.5,2c0.7,0,1.3-0.2,2-0.5
				C198,146.3,198.7,143.8,197.6,141.9z"/>
		</g>
	</g>
	<path class="st1" d="M74,82.4V78c0-1.1,0.9-2,2-2h8c1.1,0,2,0.9,2,2v15.8c0.4,1.3,0.6,2.8,0.6,4.2v4c0,2-0.4,4-1.1,5.8
		c2.6,1,4.9,2.8,6.3,5.3l3.5,6.3l3.5-6.3c1.4-2.5,3.7-4.3,6.3-5.3c-0.7-1.8-1.1-3.7-1.1-5.8v-4c0-6.7,4.1-12.4,10-14.8V78
		c0-1.1,0.9-2,2-2h8c1.1,0,2,0.9,2,2v5.2c5.9,2.4,10,8.1,10,14.8v4c0,2-0.4,4-1.1,5.8c2.6,1,4.9,2.8,6.3,5.3l3.5,6.3l3.5-6.3
		c1.4-2.5,3.7-4.3,6.3-5.3c-0.7-1.8-1.1-3.7-1.1-5.8v-4c0-1.5,0.2-2.9,0.6-4.2V78c0-1.1,0.9-2,2-2h8c1.1,0,2,0.9,2,2v4.4
		c1.1-0.2,2.2-0.4,3.4-0.4c1.6,0,3.1,0.2,4.6,0.7V68H66v14.7c1.5-0.4,3-0.7,4.6-0.7C71.8,82,72.9,82.1,74,82.4z M134,78
		c0-1.1,0.9-2,2-2h8c1.1,0,2,0.9,2,2v10c0,1.1-0.9,2-2,2h-8c-1.1,0-2-0.9-2-2V78z M94,78c0-1.1,0.9-2,2-2h8c1.1,0,2,0.9,2,2v10
		c0,1.1-0.9,2-2,2h-8c-1.1,0-2-0.9-2-2V78z"/>
</g>
<g id="Pin_und_Zahl">
	<path class="st3" d="M118.4,8C57.8,8.9,8.5,58.5,8,119c-0.2,24.2,7.3,46.6,20.1,65l34.3,50l56,81.6c0.8,1.2,2.5,1.2,3.3,0l56-81.6
		l34.3-50c12.7-18.1,20.1-40.2,20.1-64C232,57.6,181,7.1,118.4,8z M194.9,184c-11.1,12.9-25.4,22.9-41.7,28.8
		c-10.1-5.6-21.3-8.8-33.1-8.8s-23,3.1-33.1,8.8c-16.3-5.8-30.7-15.9-41.7-28.8c-15.3-17.9-24.4-41.4-23.6-67.1
		c1.6-52.4,44.6-94.7,97.1-95.4c55-0.8,99.9,43.6,99.9,98.5C218.5,144.4,209.6,166.8,194.9,184z"/>
	<g>
		<path class="st0" d="M97.3,229.8l-9.8,0.9V224l10.7-3.1h8.9V269h-9.8V229.8z"/>
		<path class="st0" d="M126.2,241.2c1.7-0.9,3.4-1.7,5.1-2.2c1.7-0.5,3.5-0.8,5.4-0.8c2,0,3.8,0.3,5.6,0.9c1.8,0.6,3.3,1.5,4.6,2.8
			c1.3,1.2,2.3,2.8,3.1,4.7c0.8,1.9,1.2,4.2,1.2,6.7c0,2.6-0.4,4.9-1.3,7c-0.8,2-2,3.7-3.5,5.1c-1.5,1.4-3.3,2.4-5.4,3.2
			c-2.1,0.7-4.4,1.1-6.9,1.1c-3.4,0-6.3-0.6-8.6-1.7c-2.3-1.1-4.2-2.7-5.6-4.8c-1.4-2-2.5-4.4-3.1-7.1c-0.6-2.7-0.9-5.7-0.9-8.9
			c0-3.8,0.4-7.4,1.1-10.7c0.7-3.3,1.9-6.2,3.6-8.6c1.7-2.5,3.8-4.4,6.4-5.8c2.6-1.4,5.8-2.1,9.6-2.1c2.5,0,4.7,0.2,6.5,0.7
			c1.8,0.4,3.3,0.9,4.3,1.2l-1.8,7.3c-1.7-0.6-3.3-1-4.7-1.2s-2.7-0.3-3.7-0.3c-2.1,0-3.9,0.5-5.3,1.4s-2.6,2.1-3.4,3.4
			c-0.9,1.4-1.5,2.8-1.9,4.3s-0.7,2.9-0.8,4.1L126.2,241.2z M141.7,253.7c0-1.2-0.1-2.2-0.4-3.2c-0.2-1-0.6-1.8-1.2-2.5
			c-0.6-0.7-1.3-1.3-2.2-1.7c-0.9-0.4-2.1-0.6-3.5-0.6c-1.2,0-2.3,0.1-3.3,0.4c-1,0.3-1.8,0.6-2.6,0.9c-0.7,0.3-1.3,0.7-1.8,1
			c-0.5,0.3-0.8,0.5-1,0.6v1.3c0,1.2,0.1,2.6,0.3,4s0.6,2.7,1.2,3.9c0.6,1.2,1.4,2.2,2.5,2.9c1.1,0.8,2.5,1.1,4.3,1.1
			c2.4,0,4.3-0.7,5.6-2.2C141,258,141.7,256.1,141.7,253.7z"/>
	</g>
</g>
</svg>
