<?xml version="1.0" encoding="utf-8"?>
<!-- Generator: Adobe Illustrator 26.0.3, SVG Export Plug-In . SVG Version: 6.00 Build 0)  -->
<svg version="1.1" xmlns="http://www.w3.org/2000/svg" xmlns:xlink="http://www.w3.org/1999/xlink" x="0px" y="0px"
	 viewBox="0 0 240 328" style="enable-background:new 0 0 240 328;" xml:space="preserve">
<style type="text/css">
	.st0{fill:#FFFFFF;}
	.st1{fill:#005A8C;}
	.st2{fill:#519DC2;}
	.st3{fill:#FD6925;}
</style>
<g id="Hintergrund_weiß">
	<path class="st0" d="M204.9,35.1C182.2,12.5,152.1,0,120,0c-0.6,0-1.1,0-1.7,0C86.9,0.4,57.3,13,35,35.5C12.7,57.9,0.3,87.6,0,119
		c-0.2,25,7.2,49.1,21.5,69.6l34.3,50l56,81.6c1.9,2.7,4.9,4.3,8.2,4.3c3.3,0,6.4-1.6,8.2-4.3l56-81.6l34.3-50
		c14.1-20.2,21.5-43.9,21.5-68.5C240,87.9,227.5,57.8,204.9,35.1z"/>
</g>
<g id="Icon">
	<g>
		<path class="st1" d="M70.3,161.6c2.3,2.4,2.4,2.4,3.1,2.4c0.7,0,0.8,0,3.1-2.4c1.5-1.5,3.3-3.4,5.8-5.1l10.4-64.9
			c0.2-1,1-1.7,1.9-1.7H158c1.2,0,2.1,1.1,1.9,2.3l-9.7,60.6c6.6,1.8,10.7,6,13.4,8.7c2.3,2.4,2.4,2.4,3.1,2.4c0.7,0,0.8,0,3.1-2.4
			c3.1-3.2,8.2-8.4,17.1-9.5c0.4,0,0.8-0.1,1.1-0.1c0.7,0,1.4,0.1,2,0.2V68c0-1.1-0.9-2-2-2h-24c-1.1,0-2,0.9-2,2v8c0,1.1-0.9,2-2,2
			H96c-1.1,0-2-0.9-2-2v-8c0-1.1-0.9-2-2-2H67.7c-1,0-1.8,0.7-2,1.7l-13.5,84.4c0.3,0,0.6,0,0.9,0.1
			C62.1,153.2,67.2,158.5,70.3,161.6z"/>
		<path class="st2" d="M188,160.1c-0.1,0-0.2,0-0.2,0c-5.3,0.6-8.5,3.3-11.1,5.9c-0.4,0.4-0.8,0.8-1.2,1.2c-2.7,2.8-4.7,4.8-8.8,4.8
			s-6.1-2-8.8-4.8c-0.4-0.4-0.8-0.8-1.2-1.2c-2-2-4.4-4-7.7-5.1c-1.6-0.5-3.5-0.9-5.6-0.9c-6.6,0-10.4,3.1-13.3,6
			c-0.2,0.2-0.4,0.4-0.6,0.6c0-0.2,0.1-0.4,0.1-0.6c0.3-1.8,0.6-3.7,0.9-5.6c0.3-1.7,0.5-3.5,0.8-5.3c1.6-10.3,3.6-22.6,5.7-34.7
			c1.6-9.1,4.4-12.2,5.9-13.3c0.3-0.2,0.6-0.4,0.9-0.5l1-6.3c0.2-1.2-0.7-2.3-2-2.3h-4.3c-0.2,0.1-0.5,0.3-0.7,0.4
			c-5.4,3.3-9,10.1-10.8,20.2c-2.9,16.7-5.5,33.6-7.3,45.4c-0.1,0.7-0.2,1.4-0.3,2c-0.1,0.7-0.2,1.3-0.3,1.9c-0.2,1.4-0.4,2.8-0.6,4
			c-3.2-0.4-4.9-2.3-7.3-4.7c-0.4-0.4-0.8-0.8-1.2-1.2c-1.5-1.5-3.3-3.1-5.6-4.2c0.2-1.3,0.4-2.7,0.6-4.1c0.2-1.3,0.4-2.7,0.6-4.1
			c1.3-8.7,3.1-19.9,5.5-33.2c1.6-9.1,4.4-12.2,5.9-13.3c0.3-0.2,0.6-0.4,0.9-0.5l1-6.3c0.2-1.2-0.7-2.3-2-2.3h-4.3
			c-0.2,0.1-0.5,0.3-0.7,0.4c-5.4,3.3-9,10.1-10.8,20.2c-2.3,13.4-4.1,24.6-5.5,33.4c-0.2,1.4-0.4,2.7-0.6,4
			c-0.2,1.4-0.4,2.8-0.6,4.1c-5.3,0.6-8.6,3.3-11.2,5.9c-0.4,0.4-0.8,0.8-1.2,1.2c-0.7,0.7-1.4,1.4-2,2c-1.9,1.7-3.7,2.8-6.8,2.8
			c-4.1,0-6.1-2-8.8-4.8c-0.4-0.4-0.8-0.8-1.2-1.2c-2.6-2.6-5.9-5.3-11.1-5.9c-0.1,0-0.2,0-0.2,0c-0.4,0-0.8,0.1-1.1,0.3
			c-0.5,0.4-0.9,1-0.9,1.7v10c0,1,0.7,1.8,1.7,2c3.1,0.5,4.8,2.3,7.1,4.7c3.1,3.2,7,7.2,14.5,7.2c7.5,0,11.4-4,14.5-7.2
			c2.7-2.8,4.7-4.8,8.8-4.8c4.1,0,6.1,2,8.8,4.8c3.1,3.2,7,7.2,14.5,7.2c7.5,0,11.4-4,14.5-7.2c2.7-2.8,4.7-4.8,8.8-4.8
			c4.1,0,6.1,2,8.8,4.8c3.1,3.2,7,7.2,14.5,7.2c7.5,0,11.4-4,14.5-7.2c2.3-2.4,4.1-4.2,7.1-4.7c1-0.2,1.7-1,1.7-2V164v-1.9
			C190,161,189.1,160.1,188,160.1z"/>
	</g>
</g>
<g id="Pin_und_Zahl">
	<path class="st3" d="M118.4,8C57.8,8.9,8.5,58.5,8,119c-0.2,24.2,7.3,46.6,20.1,65l34.3,50l56,81.6c0.8,1.2,2.5,1.2,3.3,0l56-81.6
		l34.3-50c12.7-18.1,20.1-40.2,20.1-64C232,57.6,181,7.1,118.4,8z M194.9,184c-11.1,12.9-25.4,22.9-41.7,28.8
		c-10.1-5.6-21.3-8.8-33.1-8.8s-23,3.1-33.1,8.8c-16.3-5.8-30.7-15.9-41.7-28.8c-15.3-17.9-24.4-41.4-23.6-67.1
		c1.6-52.4,44.6-94.7,97.1-95.4c55-0.8,99.9,43.6,99.9,98.5C218.5,144.4,209.6,166.8,194.9,184z"/>
	<g>
		<path class="st0" d="M125.7,248.5c-3.5,2-7,3-10.5,3c-2,0-3.9-0.3-5.6-0.9s-3.3-1.5-4.5-2.8c-1.3-1.3-2.3-2.8-3-4.8
			c-0.7-1.9-1.1-4.2-1.1-6.8c0-2.6,0.4-4.9,1.3-7c0.8-2.1,2-3.8,3.5-5.2c1.5-1.4,3.3-2.5,5.4-3.2c2.1-0.7,4.4-1.1,6.9-1.1
			c3.4,0,6.2,0.6,8.5,1.8c2.3,1.2,4.2,2.8,5.6,4.8c1.4,2,2.5,4.4,3.1,7.2c0.6,2.8,0.9,5.7,0.9,9c0,3.8-0.4,7.4-1.1,10.7
			c-0.7,3.3-1.9,6.2-3.6,8.6c-1.7,2.4-3.8,4.3-6.4,5.7c-2.6,1.4-5.8,2.1-9.5,2.1c-2.5,0-4.7-0.2-6.6-0.6c-1.9-0.4-3.4-0.8-4.4-1.2
			l1.8-7.2c1.7,0.6,3.3,0.9,4.8,1.1c1.5,0.2,2.8,0.2,3.9,0.2c2.1,0,3.8-0.5,5.2-1.4c1.4-0.9,2.5-2.1,3.4-3.4s1.5-2.8,1.9-4.3
			c0.4-1.5,0.7-2.9,0.8-4.1L125.7,248.5z M110.3,236c0,1.2,0.1,2.2,0.3,3.2c0.2,1,0.6,1.8,1.2,2.5c0.6,0.7,1.3,1.3,2.2,1.7
			c0.9,0.4,2.1,0.6,3.5,0.6c1.2,0,2.3-0.1,3.3-0.4c1-0.3,1.8-0.6,2.6-0.9c0.7-0.3,1.3-0.7,1.8-1c0.4-0.3,0.8-0.5,0.9-0.6v-1.4
			c0-1.2-0.1-2.5-0.3-3.9c-0.2-1.4-0.6-2.6-1.1-3.8c-0.6-1.2-1.4-2.2-2.4-3c-1.1-0.8-2.5-1.2-4.3-1.2c-2.5,0-4.4,0.7-5.7,2.2
			C110.9,231.6,110.3,233.6,110.3,236z"/>
	</g>
</g>
</svg>
