<?xml version="1.0" encoding="utf-8"?>
<!-- Generator: Adobe Illustrator 26.0.3, SVG Export Plug-In . SVG Version: 6.00 Build 0)  -->
<svg version="1.1" xmlns="http://www.w3.org/2000/svg" xmlns:xlink="http://www.w3.org/1999/xlink" x="0px" y="0px"
	 viewBox="0 0 240 328" style="enable-background:new 0 0 240 328;" xml:space="preserve">
<style type="text/css">
	.st0{fill:#FFFFFF;}
	.st1{fill:#5A6166;}
	.st2{fill:#ACB0B2;}
	.st3{fill:#00689D;}
</style>
<g id="Hintergrund_weiß">
	<path class="st0" d="M204.9,35.1C182.2,12.5,152.1,0,120,0c-0.6,0-1.1,0-1.7,0C86.9,0.4,57.3,13,35,35.5C12.7,57.9,0.3,87.6,0,119
		c-0.2,25,7.2,49.1,21.5,69.6l34.3,50l56,81.6c1.9,2.7,4.9,4.3,8.2,4.3c3.3,0,6.4-1.6,8.2-4.3l56-81.6l34.3-50
		c14.1-20.2,21.5-43.9,21.5-68.5C240,87.9,227.5,57.8,204.9,35.1z"/>
</g>
<g id="Icon">
	<g>
		<g>
			<path class="st1" d="M120,108.6c-0.5,0.3-0.9,0.6-1.4,0.9c-0.8,0.4-1.6,0.8-2.4,1.1v15.5c-3-3.5-6.9-6.4-11.6-8.3
				c-8-3.3-16.4-3-23,0.2c-0.9,0.4-1.4,1.5-1,2.5c1.7,4.5,4.8,8.7,8.9,12c1.8-1.5,4.1-2.4,6.5-2.4c2.9,0,5.6,1.2,7.5,3.4l4.5,5.1
				l4.5-5.1c1-1.1,2.3-2,3.7-2.6c0.9-0.4,1.9-0.6,2.9-0.7c0.3,0,0.6-0.1,1-0.1c1.5,0,2.9,0.3,4.2,0.9v-20.2
				c-0.9-0.3-1.9-0.8-2.7-1.3C121,109.2,120.5,108.9,120,108.6z"/>
			<path class="st1" d="M151.4,58.3c-1.4-0.8-3.4-1.5-5.9-1.5c-0.2,0-0.3,0-0.5,0c0.5-0.8,1-1.7,1.3-2.6c1.1-3.2,0.8-6.5-1-9.6
				c-2.7-4.8-8.8-8.4-14.6-8.4c-2.1,0-4.1,0.5-6,1.5c-1.5,0.9-3.2,2.3-4.5,4.7c-1.3-2.4-2.9-3.8-4.5-4.7c-1.8-1-3.9-1.5-6.1-1.5
				c-2.7,0-5.6,0.8-8.3,2.3c-4.9,2.8-7.9,7.4-7.9,11.9c0,1.7,0.4,3.9,1.8,6.2c-0.2,0-0.4,0-0.6,0c-2.5,0-4.4,0.7-5.8,1.5
				c-7,4-8.2,14.6-4.4,21.1c1.8,3.1,4.5,5.1,7.8,5.7c0.8,0.2,1.6,0.2,2.4,0.2c0.1,0,0.3,0,0.4,0c-0.5,0.8-1,1.7-1.3,2.6
				c-1.1,3.2-0.8,6.5,1,9.6c2.7,4.8,8.8,8.4,14.6,8.4c2.1,0,4.1-0.5,6-1.5c0.2-0.1,0.4-0.2,0.6-0.4c1.4-0.9,2.8-2.3,3.9-4.3
				c1.2,2.2,2.7,3.6,4.1,4.5c0.1,0.1,0.2,0.1,0.3,0.2c1.8,1,3.9,1.5,6.1,1.5c2.7,0,5.6-0.8,8.3-2.3c4.9-2.8,7.9-7.4,7.9-11.9
				c0-1.7-0.4-3.9-1.8-6.2c0.2,0,0.4,0,0.6,0c2.5,0,4.4-0.7,5.8-1.5c0,0,0,0,0,0c4-2.3,6.5-7.2,6.5-12.8
				C157.9,65.5,155.4,60.6,151.4,58.3z M127.4,84c-6.5,4-14.9,1.9-18.9-4.5c-4-6.5-1.9-14.9,4.5-18.9c6.5-4,14.9-1.9,18.9,4.5
				C135.9,71.6,133.8,80,127.4,84z"/>
		</g>
		<path class="st2" d="M175.5,145.4l-6-6.8c-0.4-0.4-0.9-0.7-1.5-0.7c-0.5,0-1.1,0.2-1.5,0.7l-6,6.8c-0.3,0.4-0.5,0.8-0.5,1.3v6.2
			h-4h-4v-6.2c0-0.5-0.2-1-0.5-1.3l-6-6.8c-0.4-0.4-0.9-0.7-1.5-0.7c-0.5,0-1.1,0.2-1.5,0.7l-6,6.8c-0.3,0.4-0.5,0.8-0.5,1.3v6.2h-4
			h-4v-6.2c0-0.5-0.2-1-0.5-1.3l-3.3-3.7l-2.7-3c-0.4-0.4-0.9-0.7-1.5-0.7c-0.5,0-1.1,0.2-1.5,0.7l-2.3,2.6l-3.7,4.1
			c-0.3,0.4-0.5,0.8-0.5,1.3v6.2h-4h-4v-6.2c0-0.5-0.2-1-0.5-1.3l-6-6.8c-0.4-0.4-0.9-0.7-1.5-0.7c-0.5,0-1.1,0.2-1.5,0.7l-6,6.8
			c-0.3,0.4-0.5,0.8-0.5,1.3v6.2h-4h-4v-6.2c0-0.5-0.2-1-0.5-1.3l-6-6.8c-0.4-0.4-0.9-0.7-1.5-0.7c-0.5,0-1.1,0.2-1.5,0.7l-6,6.8
			c-0.3,0.4-0.5,0.8-0.5,1.3V189c0,1.1,0.9,2,2,2h12c1.1,0,2-0.9,2-2v-12h4h4v12c0,1.1,0.9,2,2,2h12c1.1,0,2-0.9,2-2v-12h4h4v12
			c0,1.1,0.9,2,2,2h12c1.1,0,2-0.9,2-2v-12h4h4v12c0,1.1,0.9,2,2,2h12c1.1,0,2-0.9,2-2v-12h4h4v12c0,1.1,0.9,2,2,2h12
			c1.1,0,2-0.9,2-2v-42.2C176,146.3,175.8,145.8,175.5,145.4z"/>
	</g>
</g>
<g id="Pin_und_Zahl">
	<path class="st3" d="M118.4,8C57.8,8.9,8.5,58.5,8,119c-0.2,24.2,7.3,46.6,20.1,65l34.3,50l56,81.6c0.8,1.2,2.5,1.2,3.3,0l56-81.6
		l34.3-50c12.7-18.1,20.1-40.2,20.1-64C232,57.6,181,7.1,118.4,8z M194.9,184c-11.1,12.9-25.4,22.9-41.7,28.8
		c-10.1-5.6-21.3-8.8-33.1-8.8s-23,3.1-33.1,8.8c-16.3-5.8-30.7-15.9-41.7-28.8c-15.3-17.9-24.4-41.4-23.6-67.1
		c1.6-52.4,44.6-94.7,97.1-95.4c55-0.8,99.9,43.6,99.9,98.5C218.5,144.4,209.6,166.8,194.9,184z"/>
	<g>
		<path class="st0" d="M97.3,229.8l-9.8,0.9V224l10.7-3.1h8.9V269h-9.8V229.8z"/>
		<path class="st0" d="M126.2,241.2c1.7-0.9,3.4-1.7,5.1-2.2c1.7-0.5,3.5-0.8,5.4-0.8c2,0,3.8,0.3,5.6,0.9c1.8,0.6,3.3,1.5,4.6,2.8
			c1.3,1.2,2.3,2.8,3.1,4.7c0.8,1.9,1.2,4.2,1.2,6.7c0,2.6-0.4,4.9-1.3,7c-0.8,2-2,3.7-3.5,5.1c-1.5,1.4-3.3,2.4-5.4,3.2
			c-2.1,0.7-4.4,1.1-6.9,1.1c-3.4,0-6.3-0.6-8.6-1.7c-2.3-1.1-4.2-2.7-5.6-4.8c-1.4-2-2.5-4.4-3.1-7.1c-0.6-2.7-0.9-5.7-0.9-8.9
			c0-3.8,0.4-7.4,1.1-10.7c0.7-3.3,1.9-6.2,3.6-8.6c1.7-2.5,3.8-4.4,6.4-5.8c2.6-1.4,5.8-2.1,9.6-2.1c2.5,0,4.7,0.2,6.5,0.7
			c1.8,0.4,3.3,0.9,4.3,1.2l-1.8,7.3c-1.7-0.6-3.3-1-4.7-1.2s-2.7-0.3-3.7-0.3c-2.1,0-3.9,0.5-5.3,1.4s-2.6,2.1-3.4,3.4
			c-0.9,1.4-1.5,2.8-1.9,4.3s-0.7,2.9-0.8,4.1L126.2,241.2z M141.7,253.7c0-1.2-0.1-2.2-0.4-3.2c-0.2-1-0.6-1.8-1.2-2.5
			c-0.6-0.7-1.3-1.3-2.2-1.7c-0.9-0.4-2.1-0.6-3.5-0.6c-1.2,0-2.3,0.1-3.3,0.4c-1,0.3-1.8,0.6-2.6,0.9c-0.7,0.3-1.3,0.7-1.8,1
			c-0.5,0.3-0.8,0.5-1,0.6v1.3c0,1.2,0.1,2.6,0.3,4s0.6,2.7,1.2,3.9c0.6,1.2,1.4,2.2,2.5,2.9c1.1,0.8,2.5,1.1,4.3,1.1
			c2.4,0,4.3-0.7,5.6-2.2C141,258,141.7,256.1,141.7,253.7z"/>
	</g>
</g>
</svg>
