<?xml version="1.0" encoding="utf-8"?>
<!-- Generator: Adobe Illustrator 26.0.3, SVG Export Plug-In . SVG Version: 6.00 Build 0)  -->
<svg version="1.1" xmlns="http://www.w3.org/2000/svg" xmlns:xlink="http://www.w3.org/1999/xlink" x="0px" y="0px"
	 viewBox="0 0 240 328" style="enable-background:new 0 0 240 328;" xml:space="preserve">
<style type="text/css">
	.st0{fill:#FFFFFF;}
	.st1{fill:#005A8C;}
	.st2{fill:#519DC2;}
	.st3{fill:#4C9F38;}
</style>
<g id="Hintergrund_weiß">
	<path class="st0" d="M204.9,35.1C182.2,12.5,152.1,0,120,0c-0.6,0-1.1,0-1.7,0C86.9,0.4,57.3,13,35,35.5C12.7,57.9,0.3,87.6,0,119
		c-0.2,25,7.2,49.1,21.5,69.6l34.3,50l56,81.6c1.9,2.7,4.9,4.3,8.2,4.3c3.3,0,6.4-1.6,8.2-4.3l56-81.6l34.3-50
		c14.1-20.2,21.5-43.9,21.5-68.5C240,87.9,227.5,57.8,204.9,35.1z"/>
</g>
<g id="Icon">
	<g>
		<path class="st1" d="M125.1,148.6c-0.1-1-0.1-5.4,0-6.4c0.3-3.4,1-6.8,2.2-10c1.5-3.9,5.2-6.6,9.4-6.6h22.9h0.2
			c0.2-0.7,0.4-1.3,0.8-1.9l10.2-19.1c1.7-3.3,5.1-5.3,8.8-5.3c1.5,0,2.9,0.3,4.3,1l0,0v-0.4c0-4.5-3.7-8.2-8.2-8.2h-36.8
			c-1,0-1.7-0.8-1.7-1.7V53.2c0-4.5-3.7-8.2-8.2-8.2H98.6c-4.4,0-8,3.6-8,8v37c0,1-0.8,1.7-1.7,1.7H52.2c-4.5,0-8.2,3.7-8.2,8.2
			v30.3c0,4.5,3.7,8.2,8.2,8.2h36.8c1,0,1.7,0.8,1.7,1.7v36.8c0,4.5,3.7,8.2,8.2,8.2h30.3c4.5,0,8.2-3.7,8.2-8.2v-3.5
			C130.3,167.1,125.9,158.3,125.1,148.6z"/>
		<g>
			<path class="st2" d="M174.4,177.2h-0.1h-14.6h-14.6H145l-1.9,5.1c-0.5,1.3,0.5,2.7,1.9,2.7h29.4c1.4,0,2.4-1.4,1.9-2.7
				L174.4,177.2z"/>
			<path class="st2" d="M185.6,109.8l-1.6-0.7l-3.4-1.6c-0.3-0.1-0.6-0.2-0.9-0.2c-0.7,0-1.4,0.4-1.8,1.1l-9.3,17.3h12.4l2.9-7
				l2.6-6.2C187,111.4,186.5,110.3,185.6,109.8z"/>
			<path class="st2" d="M184.7,135.7c-0.1-0.2-0.1-0.5-0.2-0.7c-0.2-0.6-0.7-1.1-1.3-1.2c-0.2-0.1-0.4-0.1-0.6-0.1h-1.9h-14.2h-5.6
				h-1.3h-22.9c-0.9,0-1.6,0.5-1.9,1.3c-0.9,2.5-1.5,5.1-1.7,7.9c0,0.5,0,4.5,0,5.1c0.4,4.8,1.9,9.2,4.2,13c2,3.3,4.7,6.1,7.8,8.3
				h14.6h14.6c6.7-4.6,11.2-12.4,12-21.3c0-0.5,0-4.5,0-5.1C186,140.4,185.5,137.9,184.7,135.7z"/>
		</g>
	</g>
</g>
<g id="Pin_und_Zahl">
	<path class="st3" d="M118.4,8C57.8,8.9,8.5,58.5,8,119c-0.2,24.2,7.3,46.6,20.1,65l34.3,50l56,81.6c0.8,1.2,2.5,1.2,3.3,0l56-81.6
		l34.3-50c12.7-18.1,20.1-40.2,20.1-64C232,57.6,181,7.1,118.4,8z M194.9,184c-11.1,12.9-25.4,22.9-41.7,28.8
		c-10.1-5.6-21.3-8.8-33.1-8.8s-23,3.1-33.1,8.8c-16.3-5.8-30.7-15.9-41.7-28.8c-15.3-17.9-24.4-41.4-23.6-67.1
		c1.6-52.4,44.6-94.7,97.1-95.4c55-0.8,99.9,43.6,99.9,98.5C218.5,144.4,209.6,166.8,194.9,184z"/>
	<g>
		<path class="st0" d="M125.6,239.2c1.6,0.2,3.2,0.6,4.8,1.2c1.6,0.6,3,1.4,4.3,2.6s2.3,2.5,3,4.2c0.8,1.7,1.2,3.8,1.2,6.2
			c0,2.8-0.5,5.1-1.5,7.2c-1,2-2.3,3.7-4.1,5.1c-1.7,1.4-3.8,2.4-6.1,3c-2.4,0.7-4.9,1-7.6,1c-1.1,0-2.3-0.1-3.6-0.2
			c-1.3-0.1-2.6-0.3-4-0.6c-1.4-0.3-2.7-0.6-4.1-1c-1.4-0.4-2.6-0.9-3.8-1.5l2.5-7.1c2.8,0.9,5,1.6,6.8,1.9c1.8,0.3,3.4,0.5,4.8,0.5
			c3.3,0,5.9-0.7,7.7-2.1c1.8-1.4,2.8-3.4,2.8-6.2c0-2.2-0.9-4.1-2.6-5.5c-1.7-1.4-4.5-2.1-8.4-2.1c-0.6,0-1.1,0-1.7,0.1
			c-0.6,0-1.2,0.1-1.9,0.2c0-0.3-0.1-0.7-0.2-1.2c-0.1-0.5-0.2-1-0.4-1.5c-0.1-0.5-0.2-1-0.4-1.5c-0.1-0.5-0.2-0.9-0.2-1.2
			c0.8-0.8,1.8-1.8,2.7-2.7c1-1,2-2,3-3c1-1,2-2,3-3c1-1,1.9-1.9,2.8-2.7c0-0.1-0.1-0.2-0.1-0.3c0-0.1-0.1-0.2-0.1-0.3h-18.1v-7.7
			h30.2c0.1,0.3,0.2,0.7,0.3,1.3c0.1,0.6,0.2,1.2,0.4,1.8c0.1,0.6,0.3,1.2,0.3,1.8c0.1,0.6,0.2,1,0.3,1.3l-12.4,11.7L125.6,239.2z"
			/>
	</g>
</g>
</svg>
