<?xml version="1.0" encoding="utf-8"?>
<!-- Generator: Adobe Illustrator 26.0.3, SVG Export Plug-In . SVG Version: 6.00 Build 0)  -->
<svg version="1.1" xmlns="http://www.w3.org/2000/svg" xmlns:xlink="http://www.w3.org/1999/xlink" x="0px" y="0px"
	 viewBox="0 0 240 328" style="enable-background:new 0 0 240 328;" xml:space="preserve">
<style type="text/css">
	.st0{fill:#FFFFFF;}
	.st1{fill:#005A8C;}
	.st2{fill:#519DC2;}
	.st3{fill:#FCC30B;}
</style>
<g id="Hintergrund_weiß">
	<path class="st0" d="M204.9,35.1C182.2,12.5,152.1,0,120,0c-0.6,0-1.1,0-1.7,0C86.9,0.4,57.3,13,35,35.5C12.7,57.9,0.3,87.6,0,119
		c-0.2,25,7.2,49.1,21.5,69.6l34.3,50l56,81.6c1.9,2.7,4.9,4.3,8.2,4.3c3.3,0,6.4-1.6,8.2-4.3l56-81.6l34.3-50
		c14.1-20.2,21.5-43.9,21.5-68.5C240,87.9,227.5,57.8,204.9,35.1z"/>
</g>
<g id="Icon">
	<g>
		<g>
			<path class="st1" d="M181.5,150.4l-26-24.3c-0.4-0.4-0.9-0.5-1.4-0.5s-1,0.2-1.4,0.5l-16,15l11.9,11.1c3,2.8,4,7.1,2.5,11
				c-0.7,1.8-1.8,3.2-3.3,4.3v15.4h28.3c1.1,0,2-0.9,2-2v-27h2C181.9,153.8,182.8,151.6,181.5,150.4z"/>
			<path class="st1" d="M130.9,146.5l-2.9-2.7l-2.9-2.7l-7.8-7.3c-0.4-0.4-0.9-0.5-1.4-0.5s-1,0.2-1.4,0.5l-26,24.3
				c-1.3,1.2-0.4,3.4,1.4,3.4h2v27c0,1.1,0.9,2,2,2h35.5h8.5c1.1,0,2-0.9,2-2v-1.6v-4v-21.4h2c1.8,0,2.7-2.2,1.4-3.4L130.9,146.5z"
				/>
		</g>
		<path class="st2" d="M143,80h-7.8c-0.7-6-3.1-11.5-6.6-16l5.5-5.5c1.6-1.6,1.6-4.1,0-5.7c-1.6-1.6-4.1-1.6-5.7,0l-5.5,5.5
			c-4.5-3.5-10-5.9-16-6.6V44c0-2.2-1.8-4-4-4s-4,1.8-4,4v7.8c-6,0.7-11.5,3.1-16,6.6l-5.5-5.5c-1.6-1.6-4.1-1.6-5.7,0
			c-1.6,1.6-1.6,4.1,0,5.7l5.5,5.5c-3.5,4.5-5.9,10-6.6,16H63c-2.2,0-4,1.8-4,4s1.8,4,4,4h7.8c0.7,6,3.1,11.5,6.6,16l-5.5,5.5
			c-1.6,1.6-1.6,4.1,0,5.7c0.8,0.8,1.8,1.2,2.8,1.2s2-0.4,2.8-1.2l5.5-5.5c4.5,3.5,10,5.9,16,6.6v7.8c0,2.2,1.8,4,4,4s4-1.8,4-4
			v-7.8c6-0.7,11.5-3.1,16-6.6l5.5,5.5c0.8,0.8,1.8,1.2,2.8,1.2s2-0.4,2.8-1.2c1.6-1.6,1.6-4.1,0-5.7l-5.5-5.5
			c3.5-4.5,5.9-10,6.6-16h7.8c2.2,0,4-1.8,4-4S145.2,80,143,80z M116.3,76.3c0,0,0,0.1,0,0.1L115,80l-2.8,7.5L112,88l-2.9,7.8
			l-2.2,5.8l-2.3,6.1c-0.8,2.2-4.2,1.4-3.9-1l1.9-13.8c0.1-0.9-0.4-1.7-1.1-2c-0.5-0.3-1.2-0.3-1.8,0L99,91.4l-3,1.5
			c-1.4,0.7-3.1-0.5-2.9-2.1l0.4-2.8l0-0.2l0.9-6.6l0.2-1.2l1.2-8.7l1.4-9.8c0.1-0.9,0.8-1.6,1.7-1.7c0.1,0,0.2,0,0.3,0h7.7h1.1
			c1.3,0,2.2,1.2,1.9,2.5l-2.6,11c-0.1,0.2-0.1,0.5,0,0.7c0.1,1.3,1.5,2.2,2.8,1.6l3.3-1.6C115.2,73.2,116.8,74.7,116.3,76.3z"/>
	</g>
</g>
<g id="Pin_und_Zahl">
	<path class="st3" d="M118.4,8C57.8,8.9,8.5,58.5,8,119c-0.2,24.2,7.3,46.6,20.1,65l34.3,50l56,81.6c0.8,1.2,2.5,1.2,3.3,0l56-81.6
		l34.3-50c12.7-18.1,20.1-40.2,20.1-64C232,57.6,181,7.1,118.4,8z M194.9,184c-11.1,12.9-25.4,22.9-41.7,28.8
		c-10.1-5.6-21.3-8.8-33.1-8.8s-23,3.1-33.1,8.8c-16.3-5.8-30.7-15.9-41.7-28.8c-15.3-17.9-24.4-41.4-23.6-67.1
		c1.6-52.4,44.6-94.7,97.1-95.4c55-0.8,99.9,43.6,99.9,98.5C218.5,144.4,209.6,166.8,194.9,184z"/>
	<g>
		<path class="st0" d="M106.7,228.3v-7.4h31.1v6.4L119.2,269h-9.8l18.5-40.7H106.7z"/>
	</g>
</g>
</svg>
