<?xml version="1.0" encoding="utf-8"?>
<!-- Generator: Adobe Illustrator 26.0.3, SVG Export Plug-In . SVG Version: 6.00 Build 0)  -->
<svg version="1.1" xmlns="http://www.w3.org/2000/svg" xmlns:xlink="http://www.w3.org/1999/xlink" x="0px" y="0px"
	 viewBox="0 0 240 328" style="enable-background:new 0 0 240 328;" xml:space="preserve">
<style type="text/css">
	.st0{fill:#FFFFFF;}
	.st1{fill:#5A6166;}
	.st2{fill:#ACB0B2;}
	.st3{fill:#C5192D;}
</style>
<g id="Hintergrund_weiß">
	<path class="st0" d="M204.9,35.1C182.2,12.5,152.1,0,120,0c-0.6,0-1.1,0-1.7,0C86.9,0.4,57.3,13,35,35.5C12.7,57.9,0.3,87.6,0,119
		c-0.2,25,7.2,49.1,21.5,69.6l34.3,50l56,81.6c1.9,2.7,4.9,4.3,8.2,4.3c3.3,0,6.4-1.6,8.2-4.3l56-81.6l34.3-50
		c14.1-20.2,21.5-43.9,21.5-68.5C240,87.9,227.5,57.8,204.9,35.1z"/>
</g>
<g id="Icon">
	<g>
		<path class="st1" d="M195.4,70.4l-13.1-13.1c-1.5-1.5-3.5-2.3-5.7-2.3h-18.3c-1.6,0-3.1-0.5-4.4-1.3L124.5,34
			c-2.7-1.8-6.2-1.8-8.9,0L86,53.6c-1.3,0.9-2.9,1.3-4.4,1.3H63.3c-2.1,0-4.1,0.8-5.6,2.3L44.6,70.4c-0.4,0.4-0.6,0.9-0.6,1.4V141
			c0,4.4,3.6,8,8,8h18.5v-7c0-6.9,4.4-12.7,10.5-15c-0.9-2-1.5-4.2-1.5-6.5v-4c0-8.5,7-15.5,15.5-15.5s15.5,7,15.5,15.5v4
			c0,2.3-0.5,4.5-1.5,6.5c6.1,2.3,10.5,8.1,10.5,15v7h4.7l3.1-13c0.8-3.2,2.7-5.9,5.3-7.7c-1.3-2.3-2.1-4.9-2.1-7.8v-4
			c0-8.5,7-15.5,15.5-15.5s15.5,7,15.5,15.5v4c0,2.8-0.8,5.5-2.1,7.8c2.6,1.8,4.5,4.5,5.3,7.7l3.1,13H188c4.4,0,8-3.6,8-8V71.8
			C196,71.3,195.8,70.8,195.4,70.4z M68,116c0,1.1-0.9,2-2,2H54c-1.1,0-2-0.9-2-2v-14c0-1.1,0.9-2,2-2h12c1.1,0,2,0.9,2,2V116z
			 M68,90c0,1.1-0.9,2-2,2H54c-1.1,0-2-0.9-2-2V76c0-1.1,0.9-2,2-2h12c1.1,0,2,0.9,2,2V90z M92,90c0,1.1-0.9,2-2,2H78
			c-1.1,0-2-0.9-2-2V76c0-1.1,0.9-2,2-2h12c1.1,0,2,0.9,2,2V90z M164,90c0,1.1-0.9,2-2,2h-12c-1.1,0-2-0.9-2-2V76c0-1.1,0.9-2,2-2
			h12c1.1,0,2,0.9,2,2V90z M188,116c0,1.1-0.9,2-2,2h-12c-1.1,0-2-0.9-2-2v-14c0-1.1,0.9-2,2-2h12c1.1,0,2,0.9,2,2V116z M188,90
			c0,1.1-0.9,2-2,2h-12c-1.1,0-2-0.9-2-2V76c0-1.1,0.9-2,2-2h12c1.1,0,2,0.9,2,2V90z"/>
	</g>
	<g>
		<path class="st2" d="M95,128c2,0,3.7-0.8,5.1-2c1.5-1.4,2.4-3.3,2.4-5.5v-4c0-4.1-3.4-7.5-7.5-7.5s-7.5,3.4-7.5,7.5v4
			c0,2.2,0.9,4.1,2.4,5.5C91.3,127.2,93,128,95,128z"/>
		<path class="st2" d="M103.5,134h-0.9H87.4h-0.9c-4.4,0-8,3.6-8,8v7v18c0,4.4,3.6,8,8,8H87v16c0,4.4,3.6,8,8,8s8-3.6,8-8v-16h0.5
			c4.4,0,8-3.6,8-8v-18v-7C111.5,137.6,107.9,134,103.5,134z"/>
		<path class="st2" d="M146,128c2,0,3.7-0.8,5.1-2c1.5-1.4,2.4-3.3,2.4-5.5v-4c0-4.1-3.4-7.5-7.5-7.5s-7.5,3.4-7.5,7.5v4
			c0,2.2,0.9,4.1,2.4,5.5C142.3,127.2,144,128,146,128z"/>
		<path class="st2" d="M165.6,174.1l-6-25.1l-2.7-11.2c-0.4-1.8-1.9-3.2-3.6-3.7c-0.4-0.1-0.8-0.2-1.2-0.2h-12.1
			c-0.4,0-0.8,0.1-1.2,0.2c-1.8,0.5-3.2,1.8-3.6,3.7l-2.7,11.2l-6,25.1c-1.2,5,2.6,9.9,7.8,9.9h3.9v7c0,4.4,3.6,8,8,8s8-3.6,8-8v-7
			h3.9C163,184,166.8,179.2,165.6,174.1z"/>
	</g>
</g>
<g id="Pin_und_Zahl">
	<path class="st3" d="M118.4,8C57.8,8.9,8.5,58.5,8,119c-0.2,24.2,7.3,46.6,20.1,65l34.3,50l56,81.6c0.8,1.2,2.5,1.2,3.3,0l56-81.6
		l34.3-50c12.7-18.1,20.1-40.2,20.1-64C232,57.6,181,7.1,118.4,8z M194.9,184c-11.1,12.9-25.4,22.9-41.7,28.8
		c-10.1-5.6-21.3-8.8-33.1-8.8s-23,3.1-33.1,8.8c-16.3-5.8-30.7-15.9-41.7-28.8c-15.3-17.9-24.4-41.4-23.6-67.1
		c1.6-52.4,44.6-94.7,97.1-95.4c55-0.8,99.9,43.6,99.9,98.5C218.5,144.4,209.6,166.8,194.9,184z"/>
	<g>
		<path class="st0" d="M130.8,220.9v29.3h6.8v7.1h-6.8V269h-9.5v-11.8h-21.2V251c0.7-1,1.7-2.3,2.8-3.9c1.1-1.6,2.3-3.3,3.5-5.2
			c1.3-1.9,2.6-3.9,3.9-5.9c1.4-2.1,2.7-4,3.9-5.9c1.3-1.9,2.4-3.6,3.5-5.2c1.1-1.6,2-2.9,2.8-4H130.8z M121,233.3l-11.6,16.8h12.1
			v-16.8H121z"/>
	</g>
</g>
</svg>
