<?xml version="1.0" encoding="utf-8"?>
<!-- Generator: Adobe Illustrator 26.0.3, SVG Export Plug-In . SVG Version: 6.00 Build 0)  -->
<svg version="1.1" xmlns="http://www.w3.org/2000/svg" xmlns:xlink="http://www.w3.org/1999/xlink" x="0px" y="0px"
	 viewBox="0 0 240 328" style="enable-background:new 0 0 240 328;" xml:space="preserve">
<style type="text/css">
	.st0{fill:#FFFFFF;}
	.st1{fill:#5A6166;}
	.st2{fill:#ACB0B2;}
	.st3{fill:#C5192D;}
</style>
<g id="Hintergrund_weiß">
	<path class="st0" d="M204.9,35.1C182.2,12.5,152.1,0,120,0c-0.6,0-1.1,0-1.7,0C86.9,0.4,57.3,13,35,35.5C12.7,57.9,0.3,87.6,0,119
		c-0.2,25,7.2,49.1,21.5,69.6l34.3,50l56,81.6c1.9,2.7,4.9,4.3,8.2,4.3c3.3,0,6.4-1.6,8.2-4.3l56-81.6l34.3-50
		c14.1-20.2,21.5-43.9,21.5-68.5C240,87.9,227.5,57.8,204.9,35.1z"/>
</g>
<g id="Icon">
	<g>
		<g>
			<path class="st1" d="M123.5,130c-1.1,0.4-2.3,0.5-3.5,0.5c-1.2,0-2.4-0.2-3.5-0.5L86,120.6l-18-5.6v24.4c0,13.8,23.3,25,52,25
				s52-11.2,52-25v-24.4l-18,5.6L123.5,130z"/>
			<path class="st1" d="M197.4,91.2l-76.2-23.6c-0.4-0.1-0.8-0.2-1.2-0.2s-0.8,0.1-1.2,0.2L42.6,91.2c-3.8,1.2-3.8,6.5,0,7.6
				l7.9,2.5c0.2-3.1,2.9-5.6,6.1-5.5l60.1-5c2.2,0,4,1.8,4,4c0,2.2-1.8,4-4,4l-58.2,5l18.5,5.7l22.6,7l19.1,5.9
				c0.4,0.1,0.8,0.2,1.2,0.2s0.8-0.1,1.2-0.2l19.1-5.9l22.6-7l34.5-10.7C201.2,97.7,201.2,92.3,197.4,91.2z"/>
		</g>
		<path class="st2" d="M64.5,158.6l-6-30.6l0-15.9l0-1.7l-8-2.4l0,1.6l0,18.4l0,0l-6,30.6c-0.2,1.2,0.7,2.4,2,2.4h16.1
			C63.8,161,64.8,159.8,64.5,158.6z"/>
	</g>
</g>
<g id="Pin_und_Zahl">
	<path class="st3" d="M118.4,8C57.8,8.9,8.5,58.5,8,119c-0.2,24.2,7.3,46.6,20.1,65l34.3,50l56,81.6c0.8,1.2,2.5,1.2,3.3,0l56-81.6
		l34.3-50c12.7-18.1,20.1-40.2,20.1-64C232,57.6,181,7.1,118.4,8z M194.9,184c-11.1,12.9-25.4,22.9-41.7,28.8
		c-10.1-5.6-21.3-8.8-33.1-8.8s-23,3.1-33.1,8.8c-16.3-5.8-30.7-15.9-41.7-28.8c-15.3-17.9-24.4-41.4-23.6-67.1
		c1.6-52.4,44.6-94.7,97.1-95.4c55-0.8,99.9,43.6,99.9,98.5C218.5,144.4,209.6,166.8,194.9,184z"/>
	<g>
		<path class="st0" d="M130.8,220.9v29.3h6.8v7.1h-6.8V269h-9.5v-11.8h-21.2V251c0.7-1,1.7-2.3,2.8-3.9c1.1-1.6,2.3-3.3,3.5-5.2
			c1.3-1.9,2.6-3.9,3.9-5.9c1.4-2.1,2.7-4,3.9-5.9c1.3-1.9,2.4-3.6,3.5-5.2c1.1-1.6,2-2.9,2.8-4H130.8z M121,233.3l-11.6,16.8h12.1
			v-16.8H121z"/>
	</g>
</g>
</svg>
