<?xml version="1.0" encoding="utf-8"?>
<!-- Generator: Adobe Illustrator 26.0.3, SVG Export Plug-In . SVG Version: 6.00 Build 0)  -->
<svg version="1.1" xmlns="http://www.w3.org/2000/svg" xmlns:xlink="http://www.w3.org/1999/xlink" x="0px" y="0px"
	 viewBox="0 0 240 328" style="enable-background:new 0 0 240 328;" xml:space="preserve">
<style type="text/css">
	.st0{fill:#FFFFFF;}
	.st1{fill:#5A6166;}
	.st2{fill:#ACB0B2;}
	.st3{fill:#C5192D;}
</style>
<g id="Hintergrund_weiß">
	<path class="st0" d="M204.9,35.1C182.2,12.5,152.1,0,120,0c-0.6,0-1.1,0-1.7,0C86.9,0.4,57.3,13,35,35.5C12.7,57.9,0.3,87.6,0,119
		c-0.2,25,7.2,49.1,21.5,69.6l34.3,50l56,81.6c1.9,2.7,4.9,4.3,8.2,4.3c3.3,0,6.4-1.6,8.2-4.3l56-81.6l34.3-50
		c14.1-20.2,21.5-43.9,21.5-68.5C240,87.9,227.5,57.8,204.9,35.1z"/>
</g>
<g id="Icon">
	<g>
		<path class="st1" d="M195.4,70.4l-13.1-13.1c-1.5-1.5-3.5-2.3-5.7-2.3h-18.3c-1.6,0-3.1-0.5-4.4-1.3L124.5,34
			c-2.7-1.8-6.2-1.8-8.9,0L86,53.6c-1.3,0.9-2.9,1.3-4.4,1.3H63.3c-2.1,0-4.1,0.8-5.6,2.3L44.6,70.4c-0.4,0.4-0.6,0.9-0.6,1.4V141
			c0,4.4,3.6,8,8,8h15.8c-0.5-1.2-0.8-2.6-0.8-4v-6c0-3.7,2-6.9,4.9-8.6c-0.9-3.3,0-7,2.6-9.6l4.2-4.2c1.9-1.9,4.4-2.9,7-2.9
			c0.9,0,1.7,0.1,2.6,0.3c0.4-0.7,1-1.4,1.6-2c1.9-1.9,4.4-2.9,7.1-2.9l6,0c3.7,0,6.9,2,8.6,4.9c0.8-0.2,1.7-0.3,2.5-0.3
			c2.7,0,5.2,1,7.1,2.9l4.2,4.2c1.9,1.9,3,4.6,2.9,7.4c0,0.7-0.1,1.5-0.3,2.2c2.3,1.3,4,3.6,4.7,6.2c0.6-0.6,1.2-1.1,1.9-1.5l3.5-2
			c1.5-0.9,3.3-1.4,5-1.4c0.9,0,1.8,0.1,2.6,0.3c0,0,0,0,0,0c1.9-1.9,4.4-3,7.1-3l4,0c0,0,0.1,0,0.1,0c0,0,0,0,0,0
			c2.8,0,5.3,1.1,7.1,2.9c0.9-0.2,1.8-0.4,2.7-0.4c1.7,0,3.4,0.5,5,1.3l3.5,2c2.3,1.3,4,3.5,4.7,6c0,0,0,0,0,0.1
			c2.6,0.7,4.8,2.3,6.2,4.6l2,3.4h0.1c4.4,0,8-3.6,8-8V71.8C196,71.3,195.8,70.8,195.4,70.4z M68,116c0,1.1-0.9,2-2,2H54
			c-1.1,0-2-0.9-2-2v-14c0-1.1,0.9-2,2-2h12c1.1,0,2,0.9,2,2V116z M68,90c0,1.1-0.9,2-2,2H54c-1.1,0-2-0.9-2-2V76c0-1.1,0.9-2,2-2
			h12c1.1,0,2,0.9,2,2V90z M92,90c0,1.1-0.9,2-2,2H78c-1.1,0-2-0.9-2-2V76c0-1.1,0.9-2,2-2h12c1.1,0,2,0.9,2,2V90z M164,90
			c0,1.1-0.9,2-2,2h-12c-1.1,0-2-0.9-2-2V76c0-1.1,0.9-2,2-2h12c1.1,0,2,0.9,2,2V90z M188,116c0,1.1-0.9,2-2,2h-12c-1.1,0-2-0.9-2-2
			v-14c0-1.1,0.9-2,2-2h12c1.1,0,2,0.9,2,2V116z M188,90c0,1.1-0.9,2-2,2h-12c-1.1,0-2-0.9-2-2V76c0-1.1,0.9-2,2-2h12
			c1.1,0,2,0.9,2,2V90z"/>
	</g>
	<g>
		<path class="st2" d="M184,163.9c0-0.1,0-0.3,0-0.4c0,0,0-0.1,0-0.1c0-0.1,0-0.2-0.1-0.3c0,0,0-0.1-0.1-0.1c0-0.1-0.1-0.1-0.1-0.2
			c0-0.1-0.1-0.1-0.1-0.2c0,0-0.1-0.1-0.1-0.1c0,0-0.1-0.1-0.2-0.1c0,0-0.1-0.1-0.1-0.1c-0.1,0-0.1-0.1-0.2-0.1
			c-0.1,0-0.1-0.1-0.2-0.1c-0.1,0-0.1,0-0.2-0.1c-0.1,0-0.1,0-0.2-0.1c-0.1,0-0.1,0-0.2,0c-0.1,0-0.2,0-0.2,0l-2.7,0c0,0,0,0,0,0
			c-0.1,0-0.1,0-0.2,0c-0.1,0-0.1,0-0.2,0c-0.1,0-0.1,0-0.2,0c0,0-0.1,0-0.1,0c-0.1,0-0.1-0.1-0.2-0.1c0,0-0.1,0-0.1-0.1
			c-0.1,0-0.1-0.1-0.2-0.1c0,0-0.1,0-0.1-0.1c-0.1,0-0.1-0.1-0.1-0.1c0,0-0.1-0.1-0.1-0.1c0,0-0.1-0.1-0.1-0.2c0,0-0.1-0.1-0.1-0.1
			c0-0.1-0.1-0.1-0.1-0.2c0,0,0,0,0-0.1c0-0.1-0.1-0.2-0.1-0.3c-0.1-0.3-0.2-0.6-0.2-0.9c-0.1-0.4-0.1-0.9,0.1-1.3
			c0.1-0.3,0.3-0.6,0.6-0.8c0.1-0.1,0.2-0.1,0.3-0.2l2.3-1.3c0.2-0.1,0.4-0.3,0.6-0.5c0.2-0.3,0.4-0.7,0.4-1.1c0-0.3,0-0.5-0.1-0.8
			c0-0.1-0.1-0.2-0.2-0.4l-2-3.5c-0.1-0.1-0.2-0.3-0.3-0.4c0,0-0.1-0.1-0.1-0.1c-0.1-0.1-0.2-0.1-0.2-0.2c0,0,0,0,0,0
			c0,0-0.1,0-0.1-0.1c-0.1-0.1-0.3-0.1-0.4-0.2c0,0,0,0,0,0c-0.1,0-0.3-0.1-0.5-0.1c0,0-0.1,0-0.1,0c-0.1,0-0.2,0-0.3,0
			c0,0-0.1,0-0.1,0c-0.2,0-0.3,0.1-0.4,0.2l-0.1,0.1l-2.2,1.3c-0.1,0.1-0.3,0.1-0.4,0.2c0,0-0.1,0-0.1,0c-0.1,0-0.3,0.1-0.4,0.1
			c0,0-0.1,0-0.1,0c-0.1,0-0.2,0-0.3,0c0,0-0.1,0-0.1,0c-0.1,0-0.2,0-0.2-0.1c0,0-0.1,0-0.1,0c-0.1,0-0.2-0.1-0.2-0.1
			c0,0-0.1,0-0.1-0.1c-0.1-0.1-0.2-0.2-0.3-0.2c0,0,0,0,0,0c-0.2-0.2-0.4-0.4-0.6-0.6c0,0,0,0,0,0c-0.1-0.1-0.2-0.2-0.3-0.3
			c0,0-0.1-0.1-0.1-0.1c-0.1-0.1-0.1-0.3-0.2-0.4c0-0.1-0.1-0.2-0.1-0.3c0-0.1,0-0.2,0-0.3c0-0.1,0-0.2,0-0.3c0-0.2,0.1-0.4,0.2-0.6
			l0.7-1.2l0.7-1.2c0.1-0.1,0.1-0.2,0.2-0.4c0.2-0.6,0.1-1.3-0.3-1.8c-0.2-0.2-0.4-0.4-0.6-0.5l-3.5-2c-0.1-0.1-0.3-0.1-0.4-0.2
			c0,0-0.1,0-0.1,0c-0.1,0-0.2,0-0.3,0c0,0-0.1,0-0.1,0c-0.1,0-0.3,0-0.4,0.1c0,0,0,0,0,0c-0.1,0-0.3,0.1-0.4,0.2c0,0-0.1,0-0.1,0.1
			c-0.1,0.1-0.2,0.1-0.3,0.2c0,0-0.1,0.1-0.1,0.1c-0.1,0.1-0.2,0.2-0.3,0.4l-1.3,2.3c0,0,0,0,0,0c-0.1,0.1-0.2,0.3-0.3,0.4
			c0,0,0,0-0.1,0.1c-0.1,0.1-0.2,0.2-0.4,0.3c0,0,0,0-0.1,0c-0.1,0.1-0.2,0.1-0.4,0.2c0,0-0.1,0-0.1,0c-0.1,0-0.3,0.1-0.4,0.1
			c0,0-0.1,0-0.1,0c-0.2,0-0.3,0-0.5-0.1c-0.3-0.1-0.6-0.2-0.9-0.2c-0.1,0-0.2-0.1-0.3-0.1c-0.3-0.1-0.6-0.3-0.8-0.6
			c-0.1-0.1-0.1-0.2-0.2-0.3c-0.2-0.3-0.2-0.6-0.3-1l0-1.3l0-1.3c0-0.1,0-0.3,0-0.4c0,0,0-0.1,0-0.1c0-0.1,0-0.2-0.1-0.3
			c0,0-0.1-0.1-0.1-0.1c0-0.1-0.1-0.1-0.1-0.2c0,0-0.1-0.1-0.1-0.1c0-0.1-0.1-0.1-0.1-0.2c0,0-0.1-0.1-0.1-0.1
			c-0.1,0-0.1-0.1-0.2-0.1c-0.1,0-0.1-0.1-0.2-0.1c-0.1,0-0.1-0.1-0.2-0.1c-0.1,0-0.1,0-0.2-0.1c-0.1,0-0.1,0-0.2-0.1
			c-0.1,0-0.1,0-0.2,0c-0.1,0-0.2,0-0.2,0l-4,0c-0.4,0-0.8,0.1-1.1,0.3c-0.3,0.2-0.6,0.5-0.7,0.9c-0.1,0.2-0.2,0.5-0.2,0.8v0l0,2.7
			c0,0.6-0.2,1.1-0.6,1.5c-0.2,0.2-0.5,0.4-0.9,0.5c-0.3,0.1-0.6,0.2-0.9,0.2c-0.2,0.1-0.3,0.1-0.5,0.1c0,0-0.1,0-0.1,0
			c-0.2,0-0.3,0-0.4-0.1c0,0-0.1,0-0.1,0c-0.1,0-0.3-0.1-0.4-0.2c0,0,0,0-0.1,0c-0.1-0.1-0.2-0.2-0.4-0.3c0,0,0,0-0.1-0.1
			c-0.1-0.1-0.2-0.2-0.3-0.4l-1.3-2.3c0,0,0,0,0,0c-0.1-0.1-0.2-0.3-0.3-0.4c0,0-0.1-0.1-0.1-0.1c-0.1-0.1-0.2-0.1-0.3-0.2
			c0,0-0.1,0-0.1-0.1c-0.1-0.1-0.3-0.1-0.4-0.2c0,0,0,0,0,0c-0.1,0-0.3-0.1-0.4-0.1c0,0-0.1,0-0.1,0c-0.1,0-0.2,0-0.3,0
			c0,0-0.1,0-0.1,0c-0.2,0-0.3,0.1-0.4,0.2l-3.5,2c-0.4,0.2-0.6,0.5-0.8,0.9c-0.2,0.5-0.3,1-0.1,1.5c0,0.1,0.1,0.2,0.2,0.4l1.3,2.3
			c0.1,0.2,0.2,0.4,0.2,0.6c0.1,0.3,0,0.7-0.1,1c0,0.1-0.1,0.3-0.2,0.4c0,0.1-0.1,0.1-0.1,0.2c-0.1,0.1-0.1,0.2-0.2,0.3
			c-0.2,0.2-0.4,0.4-0.6,0.7c-0.1,0.1-0.2,0.2-0.3,0.3c0,0-0.1,0-0.1,0.1c-0.1,0-0.1,0.1-0.2,0.1c0,0-0.1,0-0.1,0.1
			c-0.1,0-0.2,0.1-0.2,0.1c0,0-0.1,0-0.1,0c-0.1,0-0.2,0-0.3,0c0,0,0,0-0.1,0c-0.1,0-0.3,0-0.4-0.1c0,0-0.1,0-0.1,0
			c-0.1,0-0.3-0.1-0.4-0.2l-2.3-1.3c-0.1-0.1-0.2-0.1-0.4-0.2c0,0-0.1,0-0.1,0c0,0-0.1,0-0.1,0c-0.1,0-0.2,0-0.3,0c0,0-0.1,0-0.1,0
			c-0.1,0-0.2,0-0.3,0c0,0-0.1,0-0.1,0c0,0,0,0,0,0c0,0-0.1,0-0.1,0c-0.1,0-0.2,0.1-0.3,0.1c0,0-0.1,0-0.1,0.1
			c-0.1,0.1-0.2,0.1-0.3,0.2c0,0-0.1,0.1-0.1,0.1c-0.1,0.1-0.2,0.2-0.3,0.4l-1.7,3l-0.3,0.5c-0.1,0.2-0.2,0.5-0.2,0.8
			c-0.1,0.8,0.3,1.6,1,2l2.3,1.3c0.6,0.3,1,1,1,1.6c0,0.1,0,0.3,0,0.4c0,0.1,0,0.2-0.1,0.3c-0.1,0.2-0.1,0.4-0.2,0.7
			c0,0.1,0,0.2-0.1,0.2c0,0.2-0.1,0.3-0.2,0.4c-0.1,0.2-0.2,0.3-0.3,0.5c-0.1,0.1-0.2,0.2-0.2,0.2c-0.1,0.1-0.2,0.1-0.3,0.2
			c-0.2,0.1-0.4,0.2-0.6,0.2c-0.1,0-0.2,0-0.3,0l-2.6,0l0,0c-0.1,0-0.3,0-0.4,0c-0.3,0.1-0.5,0.2-0.7,0.3c-0.4,0.3-0.7,0.7-0.8,1.3
			c0,0.1,0,0.3,0,0.4l0,4c0,0.1,0,0.1,0,0.1c0,0.1,0,0.2,0,0.3c0,0.1,0,0.1,0.1,0.2c0,0.1,0,0.1,0.1,0.2c0,0.1,0.1,0.1,0.1,0.2
			c0,0.1,0.1,0.1,0.1,0.2c0,0.1,0.1,0.1,0.1,0.1c0,0.1,0.1,0.1,0.1,0.2c0,0,0.1,0.1,0.1,0.1c0.1,0,0.1,0.1,0.2,0.1
			c0.1,0,0.1,0.1,0.2,0.1c0.1,0,0.1,0.1,0.2,0.1c0.1,0,0.1,0,0.2,0.1c0.1,0,0.1,0,0.2,0.1c0.1,0,0.1,0,0.2,0c0.1,0,0.1,0,0.2,0
			l2.7,0c0.1,0,0.1,0,0.2,0c0.1,0,0.1,0,0.2,0c0.1,0,0.1,0,0.2,0c0,0,0.1,0,0.1,0c0.1,0,0.1,0.1,0.2,0.1c0,0,0.1,0,0.1,0.1
			c0.1,0,0.1,0.1,0.2,0.1c0,0,0.1,0,0.1,0.1c0.1,0,0.1,0.1,0.1,0.1c0,0,0.1,0.1,0.1,0.1c0,0,0.1,0.1,0.1,0.2c0,0,0.1,0.1,0.1,0.1
			c0,0.1,0.1,0.1,0.1,0.2c0,0,0,0.1,0.1,0.1c0,0.1,0.1,0.2,0.1,0.3c0.1,0.3,0.2,0.6,0.2,0.9c0.3,0.9-0.1,1.8-0.9,2.3l-2.3,1.3
			c-0.4,0.2-0.6,0.5-0.8,0.9c-0.1,0.2-0.2,0.5-0.2,0.7c0,0.1,0,0.3,0,0.4c0,0.3,0.1,0.5,0.3,0.8l2,3.5c0.1,0.1,0.2,0.3,0.3,0.4
			c0,0,0.1,0.1,0.1,0.1c0.1,0.1,0.2,0.1,0.3,0.2c0,0,0.1,0,0.1,0.1c0.1,0.1,0.3,0.1,0.4,0.2c0,0,0,0,0,0c0.1,0,0.3,0.1,0.4,0.1
			c0,0,0.1,0,0.1,0c0.1,0,0.2,0,0.3,0c0,0,0.1,0,0.1,0c0.2,0,0.3-0.1,0.4-0.2c0,0,0,0,0,0l2.3-1.3c0.1-0.1,0.3-0.1,0.4-0.2
			c0,0,0.1,0,0.1,0c0.1,0,0.3-0.1,0.4-0.1c0,0,0.1,0,0.1,0c0.1,0,0.2,0,0.3,0c0,0,0.1,0,0.1,0c0.1,0,0.2,0,0.2,0.1
			c0,0,0.1,0,0.1,0.1c0.1,0,0.2,0.1,0.2,0.1c0,0,0.1,0,0.1,0.1c0.1,0.1,0.2,0.2,0.3,0.2c0.2,0.2,0.4,0.4,0.7,0.6
			c0.2,0.2,0.3,0.3,0.4,0.5c0.1,0.2,0.2,0.4,0.2,0.6c0,0.2,0,0.4,0,0.7c0,0.1,0,0.2-0.1,0.3c0,0.1-0.1,0.2-0.1,0.3l-0.7,1.2
			l-0.7,1.2c-0.1,0.1-0.1,0.2-0.2,0.4c0,0.1-0.1,0.3-0.1,0.4c0,0.2,0,0.3,0,0.5c0.1,0.5,0.3,0.9,0.7,1.3c0.1,0.1,0.2,0.2,0.3,0.2
			l3.5,2c0.1,0.1,0.3,0.1,0.4,0.2c0,0,0.1,0,0.1,0c0.1,0,0.2,0,0.3,0c0,0,0.1,0,0.1,0c0.1,0,0.3,0,0.4-0.1c0,0,0,0,0,0
			c0.1,0,0.3-0.1,0.4-0.2c0,0,0.1,0,0.1-0.1c0.1-0.1,0.2-0.1,0.3-0.2c0,0,0.1-0.1,0.1-0.1c0.1-0.1,0.2-0.2,0.3-0.4l1.3-2.3
			c0.1-0.1,0.2-0.3,0.3-0.4c0,0,0,0,0.1-0.1c0.1-0.1,0.2-0.2,0.4-0.3c0,0,0,0,0.1,0c0.1-0.1,0.2-0.1,0.4-0.2c0,0,0.1,0,0.1,0
			c0.1,0,0.3-0.1,0.4-0.1c0,0,0.1,0,0.1,0c0.2,0,0.3,0,0.5,0.1c0.3,0.1,0.6,0.2,0.9,0.2c0.1,0,0.2,0.1,0.3,0.1
			c0.2,0.1,0.4,0.2,0.6,0.4c0.2,0.1,0.3,0.3,0.4,0.5c0.1,0.2,0.2,0.4,0.2,0.6c0,0.1,0,0.2,0,0.3l0,2.7c0,0.1,0,0.1,0,0.2
			c0,0.1,0,0.1,0,0.2c0,0.1,0,0.1,0.1,0.2c0,0.1,0,0.1,0.1,0.2c0,0.1,0.1,0.1,0.1,0.2c0,0.1,0.1,0.1,0.1,0.2c0,0.1,0.1,0.1,0.1,0.1
			c0,0.1,0.1,0.1,0.1,0.1c0,0,0.1,0.1,0.1,0.1c0.1,0,0.1,0.1,0.2,0.1c0,0,0.1,0.1,0.2,0.1c0.1,0,0.1,0.1,0.2,0.1
			c0.1,0,0.1,0,0.2,0.1c0.1,0,0.1,0,0.2,0.1c0.1,0,0.1,0,0.2,0c0.1,0,0.2,0,0.2,0l4,0c0.1,0,0.3,0,0.4,0c0.8-0.2,1.4-0.8,1.5-1.6
			c0-0.1,0-0.3,0-0.4l0-2.7c0-0.7,0.3-1.3,0.9-1.7c0.1-0.1,0.3-0.1,0.4-0.2c0.1,0,0.1-0.1,0.2-0.1c0.3-0.1,0.6-0.2,0.9-0.2
			c0,0,0,0,0,0c0.2-0.1,0.3-0.1,0.5-0.1c0,0,0.1,0,0.1,0c0.2,0,0.3,0,0.4,0.1c0,0,0.1,0,0.1,0c0.1,0,0.3,0.1,0.4,0.2c0,0,0,0,0.1,0
			c0.1,0.1,0.2,0.2,0.4,0.3c0,0,0,0,0.1,0.1c0.1,0.1,0.2,0.2,0.3,0.4l1.3,2.3c0.1,0.1,0.2,0.3,0.3,0.4c0,0,0.1,0.1,0.1,0.1
			c0.1,0.1,0.2,0.1,0.3,0.2c0,0,0.1,0,0.1,0.1c0.1,0.1,0.3,0.1,0.4,0.2c0,0,0,0,0,0c0.1,0,0.3,0.1,0.5,0.1c0,0,0.1,0,0.1,0
			c0.1,0,0.2,0,0.3,0c0,0,0.1,0,0.1,0c0.2,0,0.3-0.1,0.4-0.2c0,0,0,0,0,0l2.2-1.3l1.3-0.7c0.1-0.1,0.2-0.1,0.3-0.2
			c0.1-0.1,0.2-0.2,0.3-0.3c0.1-0.1,0.1-0.2,0.2-0.3c0.1-0.2,0.2-0.5,0.2-0.7c0-0.4-0.1-0.8-0.3-1.1l-1.3-2.3
			c-0.5-0.8-0.3-1.8,0.3-2.4c0.2-0.2,0.4-0.4,0.6-0.7c0.1-0.1,0.2-0.2,0.3-0.3c0,0,0.1,0,0.1-0.1c0.1,0,0.1-0.1,0.2-0.1
			c0,0,0.1,0,0.1-0.1c0.1,0,0.2-0.1,0.2-0.1c0,0,0.1,0,0.1,0c0.1,0,0.2,0,0.3,0c0,0,0,0,0.1,0c0.1,0,0.3,0,0.4,0.1c0,0,0.1,0,0.1,0
			c0.1,0,0.3,0.1,0.4,0.2c0,0,0,0,0,0l2.3,1.3c0.1,0.1,0.3,0.1,0.4,0.2c0,0,0.1,0,0.1,0c0.1,0,0.2,0,0.3,0c0,0,0.1,0,0.1,0
			c0.1,0,0.3,0,0.4-0.1c0,0,0,0,0,0c0.1,0,0.3-0.1,0.4-0.2c0,0,0.1,0,0.1-0.1c0.1-0.1,0.2-0.1,0.3-0.2c0,0,0.1-0.1,0.1-0.1
			c0.1-0.1,0.2-0.2,0.3-0.4l2-3.5c0.1-0.2,0.2-0.5,0.2-0.8c0-0.2,0-0.5,0-0.7c0-0.1,0-0.1-0.1-0.2c-0.1-0.3-0.2-0.5-0.4-0.7
			c-0.1-0.1-0.3-0.3-0.5-0.4l-2.3-1.3c-0.4-0.2-0.7-0.6-0.9-1c-0.1-0.3-0.2-0.6-0.1-1c0-0.1,0-0.2,0.1-0.3c0.1-0.3,0.2-0.6,0.2-0.9
			c0-0.1,0.1-0.2,0.1-0.3c0.1-0.2,0.2-0.4,0.4-0.6c0.1-0.2,0.3-0.3,0.5-0.4c0.2-0.1,0.4-0.2,0.6-0.2c0.1,0,0.2,0,0.3,0l2.7,0
			c0.1,0,0.3,0,0.4,0c0.1,0,0.3-0.1,0.4-0.1c0.7-0.3,1.2-1,1.2-1.8L184,163.9z M161.1,169.5c-1.9,3.4-6.2,4.5-9.5,2.6
			c-3.4-1.9-4.5-6.2-2.6-9.5c1.9-3.4,6.2-4.5,9.5-2.6C161.8,161.8,163,166.1,161.1,169.5z"/>
		<path class="st2" d="M125,139c0-0.3-0.1-0.5-0.2-0.8c-0.1-0.2-0.2-0.5-0.4-0.6c-0.4-0.4-0.9-0.6-1.4-0.6l-1.9,0
			c-0.6,0-1.2-0.3-1.6-0.8c-0.1-0.2-0.2-0.3-0.3-0.6c-0.1-0.3-0.2-0.7-0.4-1c-0.1-0.3-0.2-0.6-0.4-0.9c-0.1-0.3-0.3-0.6-0.4-0.9
			c-0.1-0.2-0.2-0.4-0.2-0.6c0-0.2,0-0.4,0-0.6c0.1-0.4,0.3-0.8,0.6-1.1l1.2-1.2c0.1-0.1,0.2-0.2,0.3-0.4c0.5-0.8,0.5-1.6,0.1-2.3
			c-0.1-0.1-0.2-0.2-0.3-0.3l-2.1-2.1l-2.1-2.1c-0.1-0.1-0.3-0.3-0.5-0.4c-0.1-0.1-0.3-0.1-0.4-0.2c0,0-0.1,0-0.1,0
			c-0.2,0-0.5,0-0.7,0c0,0-0.1,0-0.1,0c-0.1,0-0.3,0.1-0.4,0.2c-0.2,0.1-0.3,0.2-0.5,0.4l-1.3,1.3c0,0,0,0,0,0
			c-0.1,0.1-0.3,0.2-0.4,0.3c0,0-0.1,0-0.1,0.1c-0.2,0.1-0.3,0.1-0.5,0.2c0,0,0,0-0.1,0c-0.2,0-0.3,0-0.5,0c-0.1,0-0.1,0-0.2,0
			c-0.2,0-0.4-0.1-0.5-0.2c0,0,0,0,0,0c-0.9-0.5-1.8-0.8-2.8-1.2c-0.4-0.1-0.7-0.4-1-0.7c-0.2-0.3-0.4-0.7-0.4-1.2l0-1.6
			c0-0.3-0.1-0.6-0.2-0.9c-0.2-0.4-0.4-0.7-0.7-1c-0.3-0.2-0.7-0.4-1.1-0.4l-6,0c-0.1,0-0.3,0-0.4,0c-0.9,0.2-1.6,1-1.6,2v1.9
			c0,0.9-0.5,1.6-1.3,1.9c-0.9,0.3-1.9,0.7-2.8,1.2c-0.2,0.1-0.4,0.1-0.5,0.2c-0.1,0-0.1,0-0.2,0c-0.2,0-0.3,0-0.5,0
			c0,0-0.1,0-0.1,0c-0.2,0-0.3-0.1-0.5-0.2c0,0-0.1,0-0.1-0.1c-0.2-0.1-0.3-0.2-0.4-0.3l-1.2-1.2c-0.1-0.1-0.2-0.2-0.4-0.3
			c0,0-0.1-0.1-0.1-0.1c-0.1-0.1-0.2-0.1-0.3-0.1c-0.1,0-0.1,0-0.2-0.1c-0.1,0-0.2-0.1-0.2-0.1c-0.1,0-0.1,0-0.2,0
			c-0.1,0-0.2,0-0.2,0c-0.1,0-0.1,0-0.2,0c-0.1,0-0.1,0-0.2,0c-0.1,0-0.1,0-0.2,0.1c0,0-0.1,0-0.1,0c-0.1,0-0.2,0.1-0.2,0.1
			c0,0-0.1,0-0.1,0.1c-0.1,0.1-0.2,0.2-0.3,0.3l-4.2,4.2c-0.1,0.1-0.2,0.2-0.3,0.3s-0.1,0.2-0.2,0.3c-0.1,0.2-0.1,0.5-0.1,0.8
			c0,0.3,0,0.5,0.1,0.8c0.1,0.2,0.2,0.5,0.4,0.7l1.3,1.3c0.5,0.5,0.7,1.1,0.6,1.7c0,0.2-0.1,0.4-0.2,0.6c-0.2,0.5-0.4,0.9-0.6,1.4
			c-0.2,0.5-0.4,0.9-0.5,1.4c-0.1,0.2-0.2,0.4-0.3,0.6c-0.2,0.3-0.6,0.6-1,0.7c-0.2,0.1-0.4,0.1-0.6,0.1h-1.6c-0.2,0-0.3,0-0.5,0
			c-0.5,0.1-0.8,0.3-1.1,0.5c-0.1,0.1-0.2,0.2-0.3,0.3c-0.2,0.2-0.3,0.5-0.3,0.7c0,0.1,0,0.3,0,0.4v6c0,0.8,0.5,1.5,1.2,1.8
			c0.1,0.1,0.2,0.1,0.4,0.1c0.1,0,0.3,0,0.4,0h0.9h0.9c0.4,0,0.8,0.1,1.2,0.4c0.2,0.1,0.3,0.3,0.4,0.4c0.1,0.2,0.2,0.3,0.3,0.6
			c0,0.1,0.1,0.3,0.1,0.4c0,0.1,0.1,0.2,0.1,0.3c0.3,0.7,0.6,1.4,0.9,2.1c0.1,0.1,0.1,0.3,0.1,0.4c0,0.1,0,0.1,0.1,0.2
			c0,0.2,0,0.4,0,0.6c0,0.2-0.1,0.4-0.2,0.6c-0.1,0.2-0.2,0.4-0.4,0.5l-1.2,1.2c-0.1,0.1-0.2,0.2-0.3,0.4c-0.6,0.9-0.5,1.9,0.1,2.6
			l4.2,4.2c0.1,0.1,0.2,0.2,0.3,0.3c0.3,0.2,0.7,0.3,1.1,0.3c0.5,0,1-0.2,1.4-0.6l1.3-1.3c0.1-0.1,0.3-0.2,0.5-0.3
			c0,0,0.1,0,0.1-0.1c0.2-0.1,0.3-0.1,0.5-0.2c0,0,0,0,0.1,0c0.2,0,0.3,0,0.5,0c0.1,0,0.1,0,0.2,0c0.2,0,0.4,0.1,0.5,0.2
			c0.5,0.2,0.9,0.4,1.4,0.6c0.5,0.2,0.9,0.4,1.4,0.5c0.2,0.1,0.4,0.2,0.6,0.3c0.2,0.1,0.3,0.3,0.4,0.4c0.2,0.3,0.4,0.7,0.4,1.2v1.6
			c0,0.2,0,0.3,0,0.5c0.2,1.1,1,1.7,2,1.7h6c1.1,0,2-0.9,2-2v-1.9c0-0.9,0.5-1.6,1.3-1.9c0.9-0.3,1.9-0.7,2.8-1.1
			c0.2-0.1,0.4-0.1,0.5-0.2c0.1,0,0.1,0,0.2,0c0.2,0,0.3,0,0.5,0c0,0,0.1,0,0.1,0c0.2,0,0.3,0.1,0.5,0.2c0,0,0.1,0,0.1,0.1
			c0.2,0.1,0.3,0.2,0.4,0.3l1.2,1.2c0.1,0.1,0.2,0.2,0.4,0.3c0,0,0.1,0,0.1,0.1c0.1,0.1,0.2,0.1,0.3,0.1c0.1,0,0.1,0,0.2,0.1
			c0.1,0,0.2,0.1,0.2,0.1c0.1,0,0.1,0,0.2,0c0.1,0,0.2,0,0.2,0c0.1,0,0.1,0,0.2,0c0.1,0,0.1,0,0.2,0c0.1,0,0.1,0,0.2-0.1
			c0,0,0.1,0,0.1,0c0.1,0,0.2-0.1,0.2-0.1c0,0,0.1,0,0.1-0.1c0.1-0.1,0.2-0.2,0.3-0.2c0,0,0,0,0,0l4.2-4.2c0.1-0.1,0.2-0.2,0.3-0.3
			c0.4-0.7,0.4-1.5,0-2.2c-0.1-0.1-0.2-0.2-0.3-0.3l-1.3-1.3c-0.3-0.3-0.5-0.7-0.6-1.1c-0.1-0.4,0-0.8,0.2-1.2
			c0.4-0.7,0.6-1.4,0.9-2.1c0-0.1,0.1-0.2,0.1-0.3c0-0.1,0.1-0.3,0.1-0.4c0.1-0.2,0.2-0.4,0.3-0.6c0.2-0.3,0.6-0.6,1-0.7
			c0.2-0.1,0.4-0.1,0.6-0.1h1.6c0.2,0,0.3,0,0.5,0c0.4-0.1,0.7-0.2,1-0.4c0.2-0.2,0.4-0.3,0.5-0.5c0.2-0.3,0.3-0.6,0.3-1l0-0.7
			L125,139z M96.1,149c-0.6-0.4-1.2-0.8-1.8-1.3c-3.1-3.1-3.1-8.2,0-11.3c3.1-3.1,8.2-3.1,11.3,0c3.1,3.1,3.1,8.2,0,11.3
			c-0.5,0.5-1.1,1-1.8,1.3C101.5,150.3,98.5,150.3,96.1,149z"/>
	</g>
</g>
<g id="Pin_und_Zahl">
	<path class="st3" d="M118.4,8C57.8,8.9,8.5,58.5,8,119c-0.2,24.2,7.3,46.6,20.1,65l34.3,50l56,81.6c0.8,1.2,2.5,1.2,3.3,0l56-81.6
		l34.3-50c12.7-18.1,20.1-40.2,20.1-64C232,57.6,181,7.1,118.4,8z M194.9,184c-11.1,12.9-25.4,22.9-41.7,28.8
		c-10.1-5.6-21.3-8.8-33.1-8.8s-23,3.1-33.1,8.8c-16.3-5.8-30.7-15.9-41.7-28.8c-15.3-17.9-24.4-41.4-23.6-67.1
		c1.6-52.4,44.6-94.7,97.1-95.4c55-0.8,99.9,43.6,99.9,98.5C218.5,144.4,209.6,166.8,194.9,184z"/>
	<g>
		<path class="st0" d="M130.8,220.9v29.3h6.8v7.1h-6.8V269h-9.5v-11.8h-21.2V251c0.7-1,1.7-2.3,2.8-3.9c1.1-1.6,2.3-3.3,3.5-5.2
			c1.3-1.9,2.6-3.9,3.9-5.9c1.4-2.1,2.7-4,3.9-5.9c1.3-1.9,2.4-3.6,3.5-5.2c1.1-1.6,2-2.9,2.8-4H130.8z M121,233.3l-11.6,16.8h12.1
			v-16.8H121z"/>
	</g>
</g>
</svg>
