<?xml version="1.0" encoding="utf-8"?>
<!-- Generator: Adobe Illustrator 26.0.3, SVG Export Plug-In . SVG Version: 6.00 Build 0)  -->
<svg version="1.1" xmlns="http://www.w3.org/2000/svg" xmlns:xlink="http://www.w3.org/1999/xlink" x="0px" y="0px"
	 viewBox="0 0 240 328" style="enable-background:new 0 0 240 328;" xml:space="preserve">
<style type="text/css">
	.st0{fill:#FFFFFF;}
	.st1{fill:#507666;}
	.st2{fill:#879900;}
	.st3{fill:#DDA63A;}
</style>
<g id="Hintergrund_weiß">
	<path class="st0" d="M204.9,35.1C182.2,12.5,152.1,0,120,0c-0.6,0-1.1,0-1.7,0C86.9,0.4,57.3,13,35,35.5C12.7,57.9,0.3,87.6,0,119
		c-0.2,25,7.2,49.1,21.5,69.6l34.3,50l56,81.6c1.9,2.7,4.9,4.3,8.2,4.3c3.3,0,6.4-1.6,8.2-4.3l56-81.6l34.3-50
		c14.1-20.2,21.5-43.9,21.5-68.5C240,87.9,227.5,57.8,204.9,35.1z"/>
</g>
<g id="Icon">
	<g>
		<path class="st1" d="M78.6,130.7v-10.2c-2.4-1.8-4-4.7-4-8v-4c0-5.5,4.5-10,10-10h26h24c5.5,0,10,4.5,10,10v4c0,2-0.6,3.9-1.6,5.5
			v6.7l8.5,0.9v-5c0-4.7,3.2-8.6,7.5-9.7V93.5h11c1.4,0,2.4-1.4,1.9-2.8l-12.6-30.5c-0.2-0.4-0.5-0.8-1-1l-43.8-21.9
			c-2.3-1.1-4.9-1.1-7.2,0L63.7,59.2c-0.4,0.2-0.8,0.6-1,1L50.1,90.8c-0.5,1.3,0.4,2.8,1.9,2.8h11v34h-7c-1.1,0-2,0.9-2,2v6h18.8
			c1.5-1.5,3-2.8,4.7-4C77.9,131.2,78.3,131,78.6,130.7z M104.5,63.5h13v16h-13V63.5z"/>
		<g>
			<path class="st2" d="M175.8,137.4l-9.4-1.9v0v-7.9v-7c0-1.1-0.9-2-2-2h-3c-1.1,0-2,0.9-2,2v7v6.9l-16.5-1.7l-7.3-0.7l-0.5-3.1
				l-2.5-14.4h2c1.1,0,2-0.9,2-2v-4c0,0,0-0.1,0-0.1c-0.1-1.1-0.9-1.9-2-1.9H126h-15.4H96H84.6c-1.1,0-2,0.9-2,2v4c0,1.1,0.9,2,2,2
				h2v20.8c-0.1,0.1-0.2,0.1-0.4,0.2c-1.4,0.7-2.8,1.5-4.1,2.5c-5.7,4.1-9.9,10.1-11.8,17c-0.3,1.3,0.6,2.5,1.9,2.5h7.1
				c4.6-4.6,11-7.5,18-7.5c10.5,0,19.6,6.4,23.5,15.5h4.2h6h1.5h3.5c4.1-5.7,10.8-9.5,18.3-9.5s14.3,3.8,18.3,9.5h7.8
				c1.1,0,2.1-0.9,2.1-2.1v-18.1C182.6,141.4,179.8,138,175.8,137.4z M96.6,114.5H107h3.6h14.9l0.4,2.5l0.9,5l1.2,6.9l0.7,4.2
				l-2.8,2.5l-0.9,0.8l-1.9,1.6h-4.9c-1.3-0.9-2.6-1.8-4.1-2.5c-2.3-1.1-4.7-2-7.2-2.6c-1.5-0.3-3-0.6-4.6-0.7
				c-0.7-0.1-1.5-0.1-2.2-0.1c-0.7,0-1.5,0-2.2,0.1c-0.5,0-1,0.1-1.4,0.1v-0.1V130V114.5z"/>
			<path class="st2" d="M113.9,169.5c-0.5-1.4-1.2-2.8-2.1-4c-3.2-4.5-8.4-7.5-14.3-7.5c-5.1,0-9.6,2.2-12.8,5.6
				c-1.6,1.7-2.8,3.7-3.6,5.9c-0.5,1.3-0.8,2.6-1,4c-0.1,0.7-0.1,1.3-0.1,2c0,9.6,7.9,17.5,17.5,17.5s17.5-7.9,17.5-17.5
				c0-0.7,0-1.3-0.1-2C114.7,172.1,114.3,170.8,113.9,169.5z M97.5,182.5c-3.9,0-7-3.1-7-7c0-0.7,0.1-1.4,0.3-2
				c0.5-1.7,1.6-3.1,3.1-4c1.1-0.6,2.3-1,3.6-1s2.5,0.4,3.6,1c1.5,0.9,2.6,2.3,3.1,4c0.2,0.6,0.3,1.3,0.3,2
				C104.5,179.4,101.3,182.5,97.5,182.5z"/>
			<path class="st2" d="M165.8,169.5c-1.3-1.7-3-3-5-4c-1.9-1-4.1-1.5-6.4-1.5s-4.5,0.5-6.4,1.5c-1.9,1-3.6,2.3-5,4
				c-0.9,1.2-1.7,2.5-2.2,4c-0.6,1.6-0.9,3.2-0.9,5c0,8,6.5,14.5,14.5,14.5s14.5-6.5,14.5-14.5c0-1.8-0.3-3.4-0.9-5
				C167.5,172,166.8,170.7,165.8,169.5z M154.5,183.5c-2.8,0-5-2.2-5-5s2.2-5,5-5s5,2.2,5,5S157.2,183.5,154.5,183.5z"/>
		</g>
	</g>
</g>
<g id="Pin_und_Zahl">
	<path class="st3" d="M118.4,8C57.8,8.9,8.5,58.5,8,119c-0.2,24.2,7.3,46.6,20.1,65l34.3,50l56,81.6c0.8,1.2,2.5,1.2,3.3,0l56-81.6
		l34.3-50c12.7-18.1,20.1-40.2,20.1-64C232,57.6,181,7.1,118.4,8z M194.9,184c-11.1,12.9-25.4,22.9-41.7,28.8
		c-10.1-5.6-21.3-8.8-33.1-8.8s-23,3.1-33.1,8.8c-16.3-5.8-30.7-15.9-41.7-28.8c-15.3-17.9-24.4-41.4-23.6-67.1
		c1.6-52.4,44.6-94.7,97.1-95.4c55-0.8,99.9,43.6,99.9,98.5C218.5,144.4,209.6,166.8,194.9,184z"/>
	<g>
		<path class="st0" d="M118.3,261.5h20.1v7.4h-34v-6.5c2.1-1.9,4.3-3.9,6.9-6.1c2.5-2.2,4.9-4.6,7.1-7c2.2-2.4,4.1-4.9,5.6-7.4
			c1.5-2.5,2.2-4.9,2.2-7.1c0-2.3-0.6-4-1.9-5.1c-1.3-1.2-3.1-1.7-5.6-1.7c-1.2,0-2.9,0.2-5,0.7c-2.1,0.5-4.4,1.4-7,2.9l-3.1-6.2
			c3-2.1,6-3.6,8.9-4.4c3-0.8,5.6-1.2,7.9-1.2c4.9,0,8.8,1.2,11.7,3.7c2.8,2.5,4.2,6,4.2,10.7c0,2.6-0.6,5.2-1.9,7.7
			c-1.2,2.5-2.8,4.9-4.6,7.2c-1.8,2.3-3.8,4.4-5.9,6.5c-2.1,2-4,3.9-5.8,5.5L118.3,261.5z"/>
	</g>
</g>
</svg>
