<?xml version="1.0" encoding="utf-8"?>
<!-- Generator: Adobe Illustrator 26.0.3, SVG Export Plug-In . SVG Version: 6.00 Build 0)  -->
<svg version="1.1" xmlns="http://www.w3.org/2000/svg" xmlns:xlink="http://www.w3.org/1999/xlink" x="0px" y="0px"
	 viewBox="0 0 240 328" style="enable-background:new 0 0 240 328;" xml:space="preserve">
<style type="text/css">
	.st0{fill:#FFFFFF;}
	.st1{fill:none;}
	.st2{fill:#507666;}
	.st3{fill:#879900;}
	.st4{fill:#DDA63A;}
</style>
<g id="Hintergrund_weiß">
	<path class="st0" d="M204.9,35.1C182.2,12.5,152.1,0,120,0c-0.6,0-1.1,0-1.7,0C86.9,0.4,57.3,13,35,35.5C12.7,57.9,0.3,87.6,0,119
		c-0.2,25,7.2,49.1,21.5,69.6l34.3,50l56,81.6c1.9,2.7,4.9,4.3,8.2,4.3c3.3,0,6.4-1.6,8.2-4.3l56-81.6l34.3-50
		c14.1-20.2,21.5-43.9,21.5-68.5C240,87.9,227.5,57.8,204.9,35.1z"/>
</g>
<g id="Icon">
	<g>
		<path class="st1" d="M165,72c0-0.2,0-0.4,0.1-0.6l-0.1,0.1V72z"/>
		<path class="st1" d="M131,71.6l-0.1-0.1c0.1,0.2,0.1,0.4,0.1,0.6V71.6z"/>
		<path class="st2" d="M113.3,145.6c11.7,1.3,21.7-7.9,21.7-19.4c0-4.3-1.4-8.3-3.8-11.5c-0.1-0.2-10.2-12.9-14.1-17.9
			c-0.8-1-2.3-1-3.1,0c-4,5-14,17.7-14.1,17.9c-2.8,3.9-4.3,8.8-3.6,14.1C97.3,137.6,104.5,144.6,113.3,145.6z M105.6,125.5h5.3
			c0.2,0,0.5,0.2,0.6,0.7c0.3,1.6,1.6,2.9,3.2,3.2l0,0c0.4,0.1,0.7,0.3,0.7,0.8v5.1c0,1.2-1.1,2.2-2.3,2c-4.7-0.9-8.5-4.7-9.4-9.4
			C103.4,126.6,104.4,125.5,105.6,125.5z"/>
		<path class="st3" d="M80,97.1c4.4,0,8-3.6,8-8v-10H78c-4.4,0-8,3.6-8,8V75.4l3-3c3.1-3.1,3.1-8.2,0-11.3l-7.1-7.1l-7.1,7.1
			c-3.1,3.1-3.1,8.2,0,11.3l3.2,3.2v11.4c0-4.4-3.6-8-8-8H44v10c0,4.4,3.6,8,8,8h10v16c0-4.4-3.6-8-8-8H44v10c0,4.4,3.6,8,8,8h10
			v22.4c0,1.1,0.9,2,2,2h4c1.1,0,2-0.9,2-2v-22.4h10c4.4,0,8-3.6,8-8v-10H78c-4.4,0-8,3.6-8,8v-16H80z"/>
		<path class="st2" d="M160,46h-24c-1.1,0-2,0.9-2,2v13.4c0,0.4,0.1,0.8,0.4,1.2l4.3,6c0.2,0.3,0.4,0.7,0.4,1.2V86c0,1.1,0.9,2,2,2
			h14c1.1,0,2-0.9,2-2V69.6c0-0.4,0.1-0.8,0.4-1.2l4.3-6c0.2-0.3,0.4-0.7,0.4-1.2V48C162,46.9,161.1,46,160,46z"/>
		<path class="st2" d="M130.9,71.4l-0.8-1.1c-0.3-0.2-0.7-0.4-1.1-0.4h-29c-1.1,0-2,0.9-2,2v14c0,1.1,0.9,2,2,2h29c1.1,0,2-0.9,2-2
			V72C131,71.8,131,71.6,130.9,71.4z"/>
		<path class="st2" d="M130.1,70.4l0.8,1.1C130.8,71,130.5,70.6,130.1,70.4z"/>
		<path class="st2" d="M181,70h-14c-0.4,0-0.8,0.1-1.1,0.4l-0.8,1.1c-0.1,0.2-0.1,0.4-0.1,0.6v14v0c0,1.1,0.9,2,2,2h2
			c1.1,0,2,0.9,2,2v63c0,1.1-0.9,2-2,2H70c-4.4,0-8,3.6-8,8v14c0,1.1,0.9,2,2,2h14c1.1,0,2-0.9,2-2v-2c0-1.1,0.9-2,2-2h99
			c4.4,0,8-3.6,8-8V78C189,73.6,185.4,70,181,70z"/>
		<path class="st2" d="M165.1,71.4l0.8-1.1C165.5,70.6,165.2,71,165.1,71.4z"/>
	</g>
</g>
<g id="Pin_und_Zahl">
	<path class="st4" d="M118.4,8C57.8,8.9,8.5,58.5,8,119c-0.2,24.2,7.3,46.6,20.1,65l34.3,50l56,81.6c0.8,1.2,2.5,1.2,3.3,0l56-81.6
		l34.3-50c12.7-18.1,20.1-40.2,20.1-64C232,57.6,181,7.1,118.4,8z M194.9,184c-11.1,12.9-25.4,22.9-41.7,28.8
		c-10.1-5.6-21.3-8.8-33.1-8.8s-23,3.1-33.1,8.8c-16.3-5.8-30.7-15.9-41.7-28.8c-15.3-17.9-24.4-41.4-23.6-67.1
		c1.6-52.4,44.6-94.7,97.1-95.4c55-0.8,99.9,43.6,99.9,98.5C218.5,144.4,209.6,166.8,194.9,184z"/>
	<g>
		<path class="st0" d="M118.3,261.5h20.1v7.4h-34v-6.5c2.1-1.9,4.3-3.9,6.9-6.1c2.5-2.2,4.9-4.6,7.1-7c2.2-2.4,4.1-4.9,5.6-7.4
			c1.5-2.5,2.2-4.9,2.2-7.1c0-2.3-0.6-4-1.9-5.1c-1.3-1.2-3.1-1.7-5.6-1.7c-1.2,0-2.9,0.2-5,0.7c-2.1,0.5-4.4,1.4-7,2.9l-3.1-6.2
			c3-2.1,6-3.6,8.9-4.4c3-0.8,5.6-1.2,7.9-1.2c4.9,0,8.8,1.2,11.7,3.7c2.8,2.5,4.2,6,4.2,10.7c0,2.6-0.6,5.2-1.9,7.7
			c-1.2,2.5-2.8,4.9-4.6,7.2c-1.8,2.3-3.8,4.4-5.9,6.5c-2.1,2-4,3.9-5.8,5.5L118.3,261.5z"/>
	</g>
</g>
</svg>
