<?xml version="1.0" encoding="utf-8"?>
<!-- Generator: Adobe Illustrator 26.0.3, SVG Export Plug-In . SVG Version: 6.00 Build 0)  -->
<svg version="1.1" xmlns="http://www.w3.org/2000/svg" xmlns:xlink="http://www.w3.org/1999/xlink" x="0px" y="0px"
	 viewBox="0 0 240 328" style="enable-background:new 0 0 240 328;" xml:space="preserve">
<style type="text/css">
	.st0{fill:#FFFFFF;}
	.st1{fill:#879900;}
	.st2{fill:#507666;}
	.st3{fill:#DDA63A;}
</style>
<g id="Hintergrund_weiß">
	<path class="st0" d="M204.9,35.1C182.2,12.5,152.1,0,120,0c-0.6,0-1.1,0-1.7,0C86.9,0.4,57.3,13,35,35.5C12.7,57.9,0.3,87.6,0,119
		c-0.2,25,7.2,49.1,21.5,69.6l34.3,50l56,81.6c1.9,2.7,4.9,4.3,8.2,4.3c3.3,0,6.4-1.6,8.2-4.3l56-81.6l34.3-50
		c14.1-20.2,21.5-43.9,21.5-68.5C240,87.9,227.5,57.8,204.9,35.1z"/>
</g>
<g id="Icon">
	<g>
		<path class="st1" d="M143.6,140l14.9,61.9c7.4-3.5,14.4-8,20.6-13.4L155.2,140H143.6z"/>
		<path class="st1" d="M42.4,140c-5.5,0-9.4,5.5-7.5,10.7c1.2,3.3,2.6,6.5,4.1,9.7L54.4,140H42.4z"/>
		<path class="st1" d="M104.6,140l-15,62.5c8.5-3.7,17.3-5.9,26.4-6.4V140H104.6z"/>
		<path class="st1" d="M64.5,140l-21.2,28c2.4,3.8,5,7.4,7.9,10.8c1.2,1.4,2.4,2.7,3.6,4L75.9,140H64.5z"/>
		<path class="st1" d="M84.8,140l-23.9,48.5c6.2,5.4,13.2,9.9,20.6,13.4L96.4,140H84.8z"/>
		<path class="st1" d="M124,140v56.1c9.1,0.5,17.9,2.6,26.4,6.4l-15-62.5H124z"/>
		<path class="st1" d="M205.1,150.7c1.9-5.2-2-10.7-7.5-10.7h-12l15.4,20.3C202.5,157.2,203.9,154,205.1,150.7z"/>
		<path class="st1" d="M196.7,168l-21.2-28h-11.4l21.1,42.8c1.2-1.3,2.4-2.6,3.6-4C191.7,175.4,194.4,171.8,196.7,168z"/>
		<path class="st2" d="M61,90h11v34h-7c-1.1,0-2,0.9-2,2v6h114v-6c0-1.1-0.9-2-2-2h-7V90h11c1.4,0,2.4-1.4,1.9-2.8l-12.6-30.5
			c-0.2-0.4-0.5-0.8-1-1l-43.8-21.9c-2.3-1.1-4.9-1.1-7.2,0L72.7,55.7c-0.4,0.2-0.8,0.6-1,1L59.1,87.2C58.6,88.6,59.6,90,61,90z
			 M113.5,60h13v16h-13V60z M105,96h30v28h-30V96z"/>
	</g>
</g>
<g id="Pin_und_Zahl">
	<path class="st3" d="M118.4,8C57.8,8.9,8.5,58.5,8,119c-0.2,24.2,7.3,46.6,20.1,65l34.3,50l56,81.6c0.8,1.2,2.5,1.2,3.3,0l56-81.6
		l34.3-50c12.7-18.1,20.1-40.2,20.1-64C232,57.6,181,7.1,118.4,8z M194.9,184c-11.1,12.9-25.4,22.9-41.7,28.8
		c-10.1-5.6-21.3-8.8-33.1-8.8s-23,3.1-33.1,8.8c-16.3-5.8-30.7-15.9-41.7-28.8c-15.3-17.9-24.4-41.4-23.6-67.1
		c1.6-52.4,44.6-94.7,97.1-95.4c55-0.8,99.9,43.6,99.9,98.5C218.5,144.4,209.6,166.8,194.9,184z"/>
	<g>
		<path class="st0" d="M118.3,261.5h20.1v7.4h-34v-6.5c2.1-1.9,4.3-3.9,6.9-6.1c2.5-2.2,4.9-4.6,7.1-7c2.2-2.4,4.1-4.9,5.6-7.4
			c1.5-2.5,2.2-4.9,2.2-7.1c0-2.3-0.6-4-1.9-5.1c-1.3-1.2-3.1-1.7-5.6-1.7c-1.2,0-2.9,0.2-5,0.7c-2.1,0.5-4.4,1.4-7,2.9l-3.1-6.2
			c3-2.1,6-3.6,8.9-4.4c3-0.8,5.6-1.2,7.9-1.2c4.9,0,8.8,1.2,11.7,3.7c2.8,2.5,4.2,6,4.2,10.7c0,2.6-0.6,5.2-1.9,7.7
			c-1.2,2.5-2.8,4.9-4.6,7.2c-1.8,2.3-3.8,4.4-5.9,6.5c-2.1,2-4,3.9-5.8,5.5L118.3,261.5z"/>
	</g>
</g>
</svg>
