<?xml version="1.0" encoding="utf-8"?>
<!-- Generator: Adobe Illustrator 26.0.3, SVG Export Plug-In . SVG Version: 6.00 Build 0)  -->
<svg version="1.1" xmlns="http://www.w3.org/2000/svg" xmlns:xlink="http://www.w3.org/1999/xlink" x="0px" y="0px"
	 viewBox="0 0 240 328" style="enable-background:new 0 0 240 328;" xml:space="preserve">
<style type="text/css">
	.st0{fill:#FFFFFF;}
	.st1{fill:#519DC2;}
	.st2{fill:#005A8C;}
	.st3{fill:#4C9F38;}
</style>
<g id="Hintergrund_weiß">
	<path class="st0" d="M204.9,35.1C182.2,12.5,152.1,0,120,0c-0.6,0-1.1,0-1.7,0C86.9,0.4,57.3,13,35,35.5C12.7,57.9,0.3,87.6,0,119
		c-0.2,25,7.2,49.1,21.5,69.6l34.3,50l56,81.6c1.9,2.7,4.9,4.3,8.2,4.3c3.3,0,6.4-1.6,8.2-4.3l56-81.6l34.3-50
		c14.1-20.2,21.5-43.9,21.5-68.5C240,87.9,227.5,57.8,204.9,35.1z"/>
</g>
<g id="Icon">
	<g>
		<g>
			<path class="st1" d="M94,70h15c1.1,0,2,0.9,2,2v15c0,1.1,0.9,2,2,2h14c1.1,0,2-0.9,2-2V72c0-1.1,0.9-2,2-2h15c1.1,0,2-0.9,2-2v-7
				v-7c0-1.1-0.9-2-2-2h-15c-1.1,0-2-0.9-2-2V35c0-1.1-0.9-2-2-2h-14c-1.1,0-2,0.9-2,2v15c0,1.1-0.9,2-2,2H94c-1.1,0-2,0.9-2,2v7v7
				C92,69.1,92.9,70,94,70z"/>
			<path class="st1" d="M163.7,179.9h-0.7v-4.7c0-3-0.8-5.8-2.1-8.2c-2.6-4.8-7.5-8.2-13.3-8.5c-0.3,0-0.5,0-0.8,0
				c-6.2,0-11.5,3.4-14.3,8.5c-1.3,2.3-2,4.9-2,7.7c0,7.3-5.9,13.2-13.2,13.2c-0.2,0-0.4,0-0.7,0c-7.1-0.4-12.5-6.5-12.5-13.6V167
				v-9.1c6.4-2,10.4-8.4,12-14.6c1.6-5.9,3.8-22.1,4.6-28.1c0.2-1.2-0.8-2.2-2-2.2h-9c-1.1,0-2,0.9-2,2v4.1c0,1.1,0.9,2,2,2h2.1
				c-0.8,6-2.3,15.5-3.5,20.1c-0.4,1.5-2.8,9.2-8.3,9.2c-5.5,0-7.9-7.6-8.3-9.2c-1.2-4.6-2.7-14.1-3.5-20.1h2.1c1.1,0,2-0.9,2-2V115
				c0-1.1-0.9-2-2-2h-9c-1.2,0-2.1,1.1-2,2.3c0.8,6,3,22.3,4.6,28.1c1.7,6.1,5.6,12.6,12,14.6v9.1v7.8h0c0,11.7,9.6,21.3,21.3,21.3
				c11.7,0,21.3-9.5,21.3-21.3c0-3.4,2-6.5,5.2-7.7c0.1-0.1,0.3-0.1,0.4-0.1c0.9-0.3,1.7-0.4,2.5-0.4c0.9,0,1.7,0.1,2.5,0.4
				c3.3,1,5.6,4.1,5.6,7.7v5.2h-0.7c-1.8,0-3.3,1.5-3.3,3.3v1.5c0,1.8,1.5,3.3,3.3,3.3h9.6c1.8,0,3.3-1.5,3.3-3.3v-1.5
				C167,181.4,165.5,179.9,163.7,179.9z"/>
		</g>
	</g>
	<path class="st2" d="M177,61h-21v7c0,5.5-4.5,10-10,10h-9v9c0,5.5-4.5,10-10,10h-14c-5.5,0-10-4.5-10-10v-9h-9c-5.5,0-10-4.5-10-10
		v-7H63c-4.4,0-8,3.6-8,8v90c0,4.4,3.6,8,8,8h24.9v-4.1c-5.5-3.6-9.7-9.8-11.8-17.4c-1.6-6-3.7-20.9-4.8-29.2
		c-0.4-2.9,0.5-5.7,2.4-7.9c1.9-2.2,4.6-3.4,7.5-3.4h9c4.7,0,8.6,3.2,9.7,7.6c1.1-4.3,5-7.6,9.7-7.6h9c2.9,0,5.6,1.2,7.5,3.4
		c1.9,2.2,2.8,5,2.4,7.9c-1.1,8.3-3.2,23.1-4.8,29.2c-2.1,7.6-6.3,13.8-11.8,17.4v4.1h11.7c1.2-3.5,3.2-6.7,5.8-9.4
		c4.6-4.6,10.7-7.1,17.1-7.1c0.4,0,0.8,0,1.2,0c10.1,0.5,18.5,7.2,21.7,16.5h7.4c4.4,0,8-3.6,8-8V69C185,64.6,181.4,61,177,61z"/>
</g>
<g id="Pin_und_Zahl">
	<path class="st3" d="M118.4,8C57.8,8.9,8.5,58.5,8,119c-0.2,24.2,7.3,46.6,20.1,65l34.3,50l56,81.6c0.8,1.2,2.5,1.2,3.3,0l56-81.6
		l34.3-50c12.7-18.1,20.1-40.2,20.1-64C232,57.6,181,7.1,118.4,8z M194.9,184c-11.1,12.9-25.4,22.9-41.7,28.8
		c-10.1-5.6-21.3-8.8-33.1-8.8s-23,3.1-33.1,8.8c-16.3-5.8-30.7-15.9-41.7-28.8c-15.3-17.9-24.4-41.4-23.6-67.1
		c1.6-52.4,44.6-94.7,97.1-95.4c55-0.8,99.9,43.6,99.9,98.5C218.5,144.4,209.6,166.8,194.9,184z"/>
	<g>
		<path class="st0" d="M125.6,239.2c1.6,0.2,3.2,0.6,4.8,1.2c1.6,0.6,3,1.4,4.3,2.6s2.3,2.5,3,4.2c0.8,1.7,1.2,3.8,1.2,6.2
			c0,2.8-0.5,5.1-1.5,7.2c-1,2-2.3,3.7-4.1,5.1c-1.7,1.4-3.8,2.4-6.1,3c-2.4,0.7-4.9,1-7.6,1c-1.1,0-2.3-0.1-3.6-0.2
			c-1.3-0.1-2.6-0.3-4-0.6c-1.4-0.3-2.7-0.6-4.1-1c-1.4-0.4-2.6-0.9-3.8-1.5l2.5-7.1c2.8,0.9,5,1.6,6.8,1.9c1.8,0.3,3.4,0.5,4.8,0.5
			c3.3,0,5.9-0.7,7.7-2.1c1.8-1.4,2.8-3.4,2.8-6.2c0-2.2-0.9-4.1-2.6-5.5c-1.7-1.4-4.5-2.1-8.4-2.1c-0.6,0-1.1,0-1.7,0.1
			c-0.6,0-1.2,0.1-1.9,0.2c0-0.3-0.1-0.7-0.2-1.2c-0.1-0.5-0.2-1-0.4-1.5c-0.1-0.5-0.2-1-0.4-1.5c-0.1-0.5-0.2-0.9-0.2-1.2
			c0.8-0.8,1.8-1.8,2.7-2.7c1-1,2-2,3-3c1-1,2-2,3-3c1-1,1.9-1.9,2.8-2.7c0-0.1-0.1-0.2-0.1-0.3c0-0.1-0.1-0.2-0.1-0.3h-18.1v-7.7
			h30.2c0.1,0.3,0.2,0.7,0.3,1.3c0.1,0.6,0.2,1.2,0.4,1.8c0.1,0.6,0.3,1.2,0.3,1.8c0.1,0.6,0.2,1,0.3,1.3l-12.4,11.7L125.6,239.2z"
			/>
	</g>
</g>
</svg>
