<?xml version="1.0" encoding="utf-8"?>
<!-- Generator: Adobe Illustrator 26.0.3, SVG Export Plug-In . SVG Version: 6.00 Build 0)  -->
<svg version="1.1" xmlns="http://www.w3.org/2000/svg" xmlns:xlink="http://www.w3.org/1999/xlink" x="0px" y="0px"
	 viewBox="0 0 240 328" style="enable-background:new 0 0 240 328;" xml:space="preserve">
<style type="text/css">
	.st0{fill:#FFFFFF;}
	.st1{fill:none;}
	.st2{fill:#5A6166;}
	.st3{fill:#ACB0B2;}
	.st4{fill:#00689D;}
</style>
<g id="Hintergrund_weiß">
	<path class="st0" d="M204.9,35.1C182.2,12.5,152.1,0,120,0c-0.6,0-1.1,0-1.7,0C86.9,0.4,57.3,13,35,35.5C12.7,57.9,0.3,87.6,0,119
		c-0.2,25,7.2,49.1,21.5,69.6l34.3,50l56,81.6c1.9,2.7,4.9,4.3,8.2,4.3c3.3,0,6.4-1.6,8.2-4.3l56-81.6l34.3-50
		c14.1-20.2,21.5-43.9,21.5-68.5C240,87.9,227.5,57.8,204.9,35.1z"/>
</g>
<g id="Icon">
	<g>
		<path class="st1" d="M105.6,104c0.1-0.2,0.3-0.4,0.4-0.6V94v-6.6c-0.9,1-2,1.8-3.3,2.4L71.1,104H103H105.6z"/>
		<g>
			<path class="st2" d="M137,113c0,9.4-7.6,17-17,17s-17-7.6-17-17c0-0.3,0-0.7,0-1H53.4l-0.4,0.2l8.9,53.2c0.6,3.9,4,6.7,7.9,6.7
				h100.4c3.9,0,7.2-2.8,7.9-6.7L187,112h-50C137,112.3,137,112.7,137,113z"/>
			<path class="st2" d="M180.6,94H134v9.4c0.1,0.2,0.3,0.4,0.4,0.6h2.6h50h1.3l0.1-0.7C189.3,98.4,185.5,94,180.6,94z"/>
			<path class="st2" d="M100.4,79.8l-2.5-5.4c-0.3-0.7-1.1-1.2-1.8-1.2c-0.3,0-0.6,0.1-0.8,0.2L54.6,91.7c-4.5,2-6.1,7.6-3.4,11.7
				l0.4,0.6l47.8-21.5C100.5,82,100.9,80.8,100.4,79.8z"/>
		</g>
		<polygon class="st0" points="187,112 188.3,112 189,112 189,108 187.7,108 		"/>
		<polygon class="st0" points="189,108 189,104 188.3,104 187.7,108 		"/>
		<polygon class="st0" points="51,108.7 51,112 53,112 52.3,108.1 		"/>
		<polygon class="st0" points="51.7,104 51,104 51,108 52.3,108 		"/>
		<polygon class="st0" points="52.3,108 51,108 51,108.7 52.3,108.1 		"/>
		<path class="st0" d="M136.2,108c0.4,1.3,0.7,2.6,0.7,4h50l0.7-4H136.2z"/>
		<path class="st0" d="M137,104h-2.6c0.8,1.2,1.4,2.6,1.8,4h51.4l0.7-4H187H137z"/>
		<path class="st0" d="M103.8,108c0.4-1.4,1-2.8,1.8-4H103H71.1l-8.9,4H103.8z"/>
		<path class="st0" d="M53.4,112H103c0.1-1.4,0.3-2.7,0.7-4H62.3l-7.3,3.3L53.4,112z"/>
		<polygon class="st0" points="62.3,108 71.1,104 61.4,104 52.5,108 		"/>
		<polygon class="st0" points="55,111.3 62.3,108 52.5,108 52.3,108.1 53,112 53.4,112 		"/>
		<polygon class="st0" points="51.7,104 52.3,108 52.5,108 61.4,104 53,104 		"/>
		<polygon class="st0" points="52.5,108 52.3,108 52.3,108.1 		"/>
		<path class="st3" d="M128.9,112c-0.1-1.3-0.5-2.4-1.1-3.5c-0.1-0.2-0.2-0.4-0.3-0.6c-0.4-0.6-0.9-1.2-1.5-1.7v-0.4V104v-0.6V94v-8
			V57c0-1.1-0.9-2-2-2h-8c-1.1,0-2,0.9-2,2v37v10v2.3c-1.6,1.4-2.7,3.4-2.9,5.7c0,0.3-0.1,0.7-0.1,1c0,5,4,9,9,9s9-4,9-9
			C129,112.7,129,112.3,128.9,112z"/>
	</g>
</g>
<g id="Pin_und_Zahl">
	<path class="st4" d="M118.4,8C57.8,8.9,8.5,58.5,8,119c-0.2,24.2,7.3,46.6,20.1,65l34.3,50l56,81.6c0.8,1.2,2.5,1.2,3.3,0l56-81.6
		l34.3-50c12.7-18.1,20.1-40.2,20.1-64C232,57.6,181,7.1,118.4,8z M194.9,184c-11.1,12.9-25.4,22.9-41.7,28.8
		c-10.1-5.6-21.3-8.8-33.1-8.8s-23,3.1-33.1,8.8c-16.3-5.8-30.7-15.9-41.7-28.8c-15.3-17.9-24.4-41.4-23.6-67.1
		c1.6-52.4,44.6-94.7,97.1-95.4c55-0.8,99.9,43.6,99.9,98.5C218.5,144.4,209.6,166.8,194.9,184z"/>
	<g>
		<path class="st0" d="M97.3,229.8l-9.8,0.9V224l10.7-3.1h8.9V269h-9.8V229.8z"/>
		<path class="st0" d="M126.2,241.2c1.7-0.9,3.4-1.7,5.1-2.2c1.7-0.5,3.5-0.8,5.4-0.8c2,0,3.8,0.3,5.6,0.9c1.8,0.6,3.3,1.5,4.6,2.8
			c1.3,1.2,2.3,2.8,3.1,4.7c0.8,1.9,1.2,4.2,1.2,6.7c0,2.6-0.4,4.9-1.3,7c-0.8,2-2,3.7-3.5,5.1c-1.5,1.4-3.3,2.4-5.4,3.2
			c-2.1,0.7-4.4,1.1-6.9,1.1c-3.4,0-6.3-0.6-8.6-1.7c-2.3-1.1-4.2-2.7-5.6-4.8c-1.4-2-2.5-4.4-3.1-7.1c-0.6-2.7-0.9-5.7-0.9-8.9
			c0-3.8,0.4-7.4,1.1-10.7c0.7-3.3,1.9-6.2,3.6-8.6c1.7-2.5,3.8-4.4,6.4-5.8c2.6-1.4,5.8-2.1,9.6-2.1c2.5,0,4.7,0.2,6.5,0.7
			c1.8,0.4,3.3,0.9,4.3,1.2l-1.8,7.3c-1.7-0.6-3.3-1-4.7-1.2s-2.7-0.3-3.7-0.3c-2.1,0-3.9,0.5-5.3,1.4s-2.6,2.1-3.4,3.4
			c-0.9,1.4-1.5,2.8-1.9,4.3s-0.7,2.9-0.8,4.1L126.2,241.2z M141.7,253.7c0-1.2-0.1-2.2-0.4-3.2c-0.2-1-0.6-1.8-1.2-2.5
			c-0.6-0.7-1.3-1.3-2.2-1.7c-0.9-0.4-2.1-0.6-3.5-0.6c-1.2,0-2.3,0.1-3.3,0.4c-1,0.3-1.8,0.6-2.6,0.9c-0.7,0.3-1.3,0.7-1.8,1
			c-0.5,0.3-0.8,0.5-1,0.6v1.3c0,1.2,0.1,2.6,0.3,4s0.6,2.7,1.2,3.9c0.6,1.2,1.4,2.2,2.5,2.9c1.1,0.8,2.5,1.1,4.3,1.1
			c2.4,0,4.3-0.7,5.6-2.2C141,258,141.7,256.1,141.7,253.7z"/>
	</g>
</g>
</svg>
