<?xml version="1.0" encoding="utf-8"?>
<!-- Generator: Adobe Illustrator 26.0.3, SVG Export Plug-In . SVG Version: 6.00 Build 0)  -->
<svg version="1.1" xmlns="http://www.w3.org/2000/svg" xmlns:xlink="http://www.w3.org/1999/xlink" x="0px" y="0px"
	 viewBox="0 0 240 328" style="enable-background:new 0 0 240 328;" xml:space="preserve">
<style type="text/css">
	.st0{fill:#FFFFFF;}
	.st1{fill:#507666;}
	.st2{fill:#879900;}
	.st3{fill:#DDA63A;}
</style>
<g id="Hintergrund_weiß">
	<path class="st0" d="M204.9,35.1C182.2,12.5,152.1,0,120,0c-0.6,0-1.1,0-1.7,0C86.9,0.4,57.3,13,35,35.5C12.7,57.9,0.3,87.6,0,119
		c-0.2,25,7.2,49.1,21.5,69.6l34.3,50l56,81.6c1.9,2.7,4.9,4.3,8.2,4.3c3.3,0,6.4-1.6,8.2-4.3l56-81.6l34.3-50
		c14.1-20.2,21.5-43.9,21.5-68.5C240,87.9,227.5,57.8,204.9,35.1z"/>
</g>
<g id="Icon">
	<g>
		<path class="st1" d="M120,34c-35.3,0-64,28.7-64,64c0,31.6,22.9,57.8,53,63v29c0,1.1,0.9,2,2,2h18c1.1,0,2-0.9,2-2v-29
			c30.1-5.2,53-31.4,53-63C184,62.7,155.3,34,120,34z M159.6,117.3c-3.9,14.5-15.4,25-28.6,26.7c-1.2,0.2-2.5,0.2-3.7,0.2
			c-2.5,0-4.9-0.3-7.3-0.9c0,0,0,0,0,0c0,0,0,0,0,0c-2.4,0.6-4.8,0.9-7.3,0.9c-1.2,0-2.5-0.1-3.7-0.2c-13.2-1.7-24.7-12.2-28.6-26.7
			c-2.6-9.7-1.4-20,3.3-28.1c4-6.9,10.1-11.8,17.4-13.9c-0.3-0.2-0.6-0.4-0.9-0.6c-4.5-2.9-6-8.7-3.3-13.4l2-3.5
			c1.8-3.1,5.1-5.1,8.7-5.1c0,0,0,0,0,0c1.9,0,3.7,0.5,5.3,1.5c6.2,3.9,11.1,9,14.5,14.7c1.2-2,2.8-3.9,5-5.4
			c2.8-1.9,6.3-2.9,10.2-2.9h0c3.5,0,6.7,0.8,8.8,1.5c4.5,1.4,7.3,5.7,7,10.3c-0.3,3.3-1.2,8.7-4.4,13.1c0.9,1.1,1.7,2.3,2.4,3.6
			C161.1,97.4,162.3,107.6,159.6,117.3z"/>
		<g>
			<path class="st2" d="M147.8,90.8c-2.4,1.2-5.2,1.7-8.2,1.7c-3.5,0-6.7-0.8-8.8-1.5c-4-1.2-6.6-4.7-7-8.7c-1.3-7-5.4-15-15.3-21.2
				c-0.3-0.2-0.7-0.3-1.1-0.3c-0.7,0-1.4,0.4-1.7,1l-2,3.5c-0.5,0.9-0.2,2.1,0.7,2.7c7.7,4.9,10.5,10.8,11.5,15.5
				c-2.3-0.8-4.7-1.2-7.1-1.2c-1.7,0-3.5,0.2-5.2,0.7c-12.5,3.3-19.5,17.8-15.5,32.3c3.4,12.5,13.8,21,24.6,21
				c1.7,0,3.5-0.2,5.2-0.7c0.7-0.2,1.4-0.4,2.1-0.7c0.7,0.3,1.4,0.5,2.1,0.7c1.7,0.5,3.5,0.7,5.2,0.7c10.8,0,21.2-8.5,24.6-21
				C154.4,106.2,152.6,97.1,147.8,90.8z"/>
			<path class="st2" d="M133.2,83.5c1.5,0.5,3.9,1.1,6.4,1.1c0.3,0,0.6,0,0.8,0c1.7-0.1,3.4-0.5,4.9-1.5c0,0,0.1-0.1,0.1-0.1
				c1.1-0.8,2-1.8,2.7-3c1.6-2.7,2.1-6.1,2.2-8c0.1-0.9-0.5-1.8-1.4-2.1c-1.5-0.5-3.9-1.1-6.4-1.1c-2,0-4,0.4-5.7,1.5
				c-1.5,1-2.5,2.5-3.3,4.1c-0.6,1.3-1,2.7-1.3,3.9c-0.2,1.2-0.4,2.3-0.4,3.1c0,0.3,0,0.6,0.1,0.9C132.2,82.8,132.6,83.3,133.2,83.5
				z"/>
		</g>
	</g>
</g>
<g id="Pin_und_Zahl">
	<path class="st3" d="M118.4,8C57.8,8.9,8.5,58.5,8,119c-0.2,24.2,7.3,46.6,20.1,65l34.3,50l56,81.6c0.8,1.2,2.5,1.2,3.3,0l56-81.6
		l34.3-50c12.7-18.1,20.1-40.2,20.1-64C232,57.6,181,7.1,118.4,8z M194.9,184c-11.1,12.9-25.4,22.9-41.7,28.8
		c-10.1-5.6-21.3-8.8-33.1-8.8s-23,3.1-33.1,8.8c-16.3-5.8-30.7-15.9-41.7-28.8c-15.3-17.9-24.4-41.4-23.6-67.1
		c1.6-52.4,44.6-94.7,97.1-95.4c55-0.8,99.9,43.6,99.9,98.5C218.5,144.4,209.6,166.8,194.9,184z"/>
	<g>
		<path class="st0" d="M118.3,261.5h20.1v7.4h-34v-6.5c2.1-1.9,4.3-3.9,6.9-6.1c2.5-2.2,4.9-4.6,7.1-7c2.2-2.4,4.1-4.9,5.6-7.4
			c1.5-2.5,2.2-4.9,2.2-7.1c0-2.3-0.6-4-1.9-5.1c-1.3-1.2-3.1-1.7-5.6-1.7c-1.2,0-2.9,0.2-5,0.7c-2.1,0.5-4.4,1.4-7,2.9l-3.1-6.2
			c3-2.1,6-3.6,8.9-4.4c3-0.8,5.6-1.2,7.9-1.2c4.9,0,8.8,1.2,11.7,3.7c2.8,2.5,4.2,6,4.2,10.7c0,2.6-0.6,5.2-1.9,7.7
			c-1.2,2.5-2.8,4.9-4.6,7.2c-1.8,2.3-3.8,4.4-5.9,6.5c-2.1,2-4,3.9-5.8,5.5L118.3,261.5z"/>
	</g>
</g>
</svg>
