<?xml version="1.0" encoding="utf-8"?>
<!-- Generator: Adobe Illustrator 26.0.3, SVG Export Plug-In . SVG Version: 6.00 Build 0)  -->
<svg version="1.1" xmlns="http://www.w3.org/2000/svg" xmlns:xlink="http://www.w3.org/1999/xlink" x="0px" y="0px"
	 viewBox="0 0 240 328" style="enable-background:new 0 0 240 328;" xml:space="preserve">
<style type="text/css">
	.st0{fill:#FFFFFF;}
	.st1{fill:#5A6166;}
	.st2{fill:#ACB0B2;}
	.st3{fill:#3F7E44;}
</style>
<g id="Hintergrund_weiß">
	<path class="st0" d="M204.9,35.1C182.2,12.5,152.1,0,120,0c-0.6,0-1.1,0-1.7,0C86.9,0.4,57.3,13,35,35.5C12.7,57.9,0.3,87.6,0,119
		c-0.2,25,7.2,49.1,21.5,69.6l34.3,50l56,81.6c1.9,2.7,4.9,4.3,8.2,4.3c3.3,0,6.4-1.6,8.2-4.3l56-81.6l34.3-50
		c14.1-20.2,21.5-43.9,21.5-68.5C240,87.9,227.5,57.8,204.9,35.1z"/>
</g>
<g id="Icon">
	<g>
		<g>
			<path class="st1" d="M99.1,92.4C97.2,82.5,88.5,75,78,75c-11.9,0-21.5,9.6-21.5,21.5c0,1.9,0.3,3.7,0.7,5.4
				C44,104.2,34,115.7,34,129.5c0,15.5,12.5,28,28,28h5.8c0.1,0,0.2-0.1,0.2-0.1V130c0-6.6,5.4-12,12-12h29.3l7.8-20.7
				C113.3,94,108.4,92,103,92C101.7,92,100.4,92.1,99.1,92.4z"/>
			<path class="st1" d="M189.9,128.2L159.5,47c-1.3-3.5-4.4-5.2-7.5-5.2s-6.2,1.7-7.5,5.2l-21.8,58l-4.9,13h6.1h36
				c6.6,0,12,5.4,12,12v9h10.4C188,139,191.9,133.4,189.9,128.2z"/>
		</g>
		<g>
			<path class="st2" d="M75.5,194c0,1.1,0.9,2,2,2h8c1.1,0,2-0.9,2-2v-12h-12V194z"/>
			<path class="st2" d="M152,194c0,1.1,0.9,2,2,2h8c1.1,0,2-0.9,2-2v-12h-12V194z"/>
			<path class="st2" d="M164,156v-9v-4v-4v-9c0-2.2-1.8-4-4-4h-26.2h-19h-4.3h-4.2H80c-2.2,0-4,1.8-4,4v26h56H164z"/>
			<path class="st2" d="M167,164h-3h-16H91.5H76h-3c-1.1,0-2,0.9-2,2v0.2v5.8c0,0.5,0.2,1,0.5,1.3c0.4,0.4,0.9,0.7,1.5,0.7h2.5h12h4
				h4H144h4h4h12h3c0.4,0,0.7-0.1,1-0.3c0.6-0.3,1-1,1-1.7v-5.8V166C169,164.9,168.1,164,167,164z"/>
		</g>
	</g>
</g>
<g id="Pin_und_Zahl">
	<path class="st3" d="M118.4,8C57.8,8.9,8.5,58.5,8,119c-0.2,24.2,7.3,46.6,20.1,65l34.3,50l56,81.6c0.8,1.2,2.5,1.2,3.3,0l56-81.6
		l34.3-50c12.7-18.1,20.1-40.2,20.1-64C232,57.6,181,7.1,118.4,8z M194.9,184c-11.1,12.9-25.4,22.9-41.7,28.8
		c-10.1-5.6-21.3-8.8-33.1-8.8s-23,3.1-33.1,8.8c-16.3-5.8-30.7-15.9-41.7-28.8c-15.3-17.9-24.4-41.4-23.6-67.1
		c1.6-52.4,44.6-94.7,97.1-95.4c55-0.8,99.9,43.6,99.9,98.5C218.5,144.4,209.6,166.8,194.9,184z"/>
	<g>
		<path class="st0" d="M97.3,229.8l-9.8,0.9V224l10.7-3.1h8.9V269h-9.8V229.8z"/>
		<path class="st0" d="M135.9,239.2c1.6,0.2,3.2,0.6,4.8,1.2c1.6,0.6,3,1.4,4.3,2.6c1.3,1.1,2.3,2.5,3,4.2c0.8,1.7,1.2,3.8,1.2,6.2
			c0,2.8-0.5,5.1-1.5,7.2c-1,2-2.3,3.7-4.1,5.1c-1.7,1.4-3.8,2.4-6.1,3c-2.4,0.7-4.9,1-7.6,1c-1.1,0-2.3-0.1-3.6-0.2
			c-1.3-0.1-2.6-0.3-4-0.6c-1.4-0.3-2.7-0.6-4.1-1c-1.4-0.4-2.6-0.9-3.8-1.5l2.5-7.1c2.8,0.9,5,1.6,6.8,1.9c1.8,0.3,3.4,0.5,4.8,0.5
			c3.3,0,5.9-0.7,7.7-2.1c1.8-1.4,2.8-3.4,2.8-6.2c0-2.2-0.9-4.1-2.6-5.5c-1.7-1.4-4.5-2.1-8.4-2.1c-0.6,0-1.1,0-1.7,0.1
			c-0.6,0-1.2,0.1-1.9,0.2c0-0.3-0.1-0.7-0.2-1.2c-0.1-0.5-0.2-1-0.3-1.5c-0.1-0.5-0.2-1-0.4-1.5c-0.1-0.5-0.2-0.9-0.2-1.2
			c0.8-0.8,1.8-1.8,2.7-2.7c1-1,2-2,3-3c1-1,2-2,3-3c1-1,1.9-1.9,2.8-2.7c0-0.1-0.1-0.2-0.1-0.3c0-0.1-0.1-0.2-0.1-0.3h-18.1v-7.7
			h30.2c0.1,0.3,0.2,0.7,0.3,1.3c0.1,0.6,0.2,1.2,0.4,1.8c0.1,0.6,0.3,1.2,0.3,1.8c0.1,0.6,0.2,1,0.3,1.3l-12.4,11.7L135.9,239.2z"
			/>
	</g>
</g>
</svg>
