<?xml version="1.0" encoding="utf-8"?>
<!-- Generator: Adobe Illustrator 26.0.3, SVG Export Plug-In . SVG Version: 6.00 Build 0)  -->
<svg version="1.1" xmlns="http://www.w3.org/2000/svg" xmlns:xlink="http://www.w3.org/1999/xlink" x="0px" y="0px"
	 viewBox="0 0 240 328" style="enable-background:new 0 0 240 328;" xml:space="preserve">
<style type="text/css">
	.st0{fill:#FFFFFF;}
	.st1{fill:#005A8C;}
	.st2{fill:#519DC2;}
	.st3{fill:#FCC30B;}
</style>
<g id="Hintergrund_weiß">
	<path class="st0" d="M204.9,35.1C182.2,12.5,152.1,0,120,0c-0.6,0-1.1,0-1.7,0C86.9,0.4,57.3,13,35,35.5C12.7,57.9,0.3,87.6,0,119
		c-0.2,25,7.2,49.1,21.5,69.6l34.3,50l56,81.6c1.9,2.7,4.9,4.3,8.2,4.3c3.3,0,6.4-1.6,8.2-4.3l56-81.6l34.3-50
		c14.1-20.2,21.5-43.9,21.5-68.5C240,87.9,227.5,57.8,204.9,35.1z"/>
</g>
<g id="Icon">
	<g>
		<g>
			<path class="st1" d="M166.7,182c-7.5,0-11.4-4-14.5-7.2c-2.7-2.8-4.7-4.8-8.8-4.8c-4.1,0-6.1,2-8.8,4.8c-3.1,3.2-7,7.2-14.5,7.2
				c-7.5,0-11.4-4-14.5-7.2c-2.7-2.8-4.7-4.8-8.8-4.8c-4.1,0-6.1,2-8.8,4.8c-3.1,3.2-7,7.2-14.5,7.2c-7.5,0-11.4-4-14.5-7.2
				c-2.3-2.4-4.1-4.2-7.1-4.7c-1-0.2-1.7-1-1.7-2v-10c0-1.2,1-2.1,2.2-2c6.1,0.7,9.5,4.2,12.3,7.1c2.7,2.8,4.7,4.8,8.8,4.8
				c4.1,0,6.1-2,8.8-4.8c3.1-3.2,7-7.2,14.5-7.2c7.5,0,11.4,4,14.5,7.2c2.7,2.8,4.7,4.8,8.8,4.8c4.1,0,6.1-2,8.8-4.8
				c3.1-3.2,7-7.2,14.5-7.2c7.5,0,11.4,4,14.5,7.2c2.7,2.8,4.7,4.8,8.8,4.8s6.1-2,8.8-4.8c2.8-2.9,6.2-6.4,12.3-7.1
				c1.2-0.1,2.2,0.8,2.2,2v10c0,1-0.7,1.8-1.7,2c-3.1,0.5-4.8,2.3-7.1,4.7C178.1,178,174.2,182,166.7,182z"/>
		</g>
	</g>
	<path class="st2" d="M110.8,43.7l-9,63.9c-0.2,1.6,1.4,2.8,2.9,2.1l14.4-7.3c1.4-0.7,3.1,0.5,2.9,2.1l-6.8,49.5
		c-0.3,2.4,3,3.2,3.8,1l31-84.2c0.6-1.7-1.1-3.3-2.7-2.5l-14.7,7c-1.5,0.7-3.2-0.6-2.8-2.3l6.7-28.5c0.3-1.3-0.7-2.5-1.9-2.5h-21.7
		C111.8,42,111,42.7,110.8,43.7z"/>
</g>
<g id="Pin_und_Zahl">
	<path class="st3" d="M118.4,8C57.8,8.9,8.5,58.5,8,119c-0.2,24.2,7.3,46.6,20.1,65l34.3,50l56,81.6c0.8,1.2,2.5,1.2,3.3,0l56-81.6
		l34.3-50c12.7-18.1,20.1-40.2,20.1-64C232,57.6,181,7.1,118.4,8z M194.9,184c-11.1,12.9-25.4,22.9-41.7,28.8
		c-10.1-5.6-21.3-8.8-33.1-8.8s-23,3.1-33.1,8.8c-16.3-5.8-30.7-15.9-41.7-28.8c-15.3-17.9-24.4-41.4-23.6-67.1
		c1.6-52.4,44.6-94.7,97.1-95.4c55-0.8,99.9,43.6,99.9,98.5C218.5,144.4,209.6,166.8,194.9,184z"/>
	<g>
		<path class="st0" d="M106.7,228.3v-7.4h31.1v6.4L119.2,269h-9.8l18.5-40.7H106.7z"/>
	</g>
</g>
</svg>
