<?xml version="1.0" encoding="utf-8"?>
<!-- Generator: Adobe Illustrator 26.0.3, SVG Export Plug-In . SVG Version: 6.00 Build 0)  -->
<svg version="1.1" xmlns="http://www.w3.org/2000/svg" xmlns:xlink="http://www.w3.org/1999/xlink" x="0px" y="0px"
	 viewBox="0 0 240 328" style="enable-background:new 0 0 240 328;" xml:space="preserve">
<style type="text/css">
	.st0{fill:#FFFFFF;}
	.st1{fill:#ACB0B2;}
	.st2{fill:#5A6166;}
	.st3{fill:#3F7E44;}
</style>
<g id="Hintergrund_weiß">
	<path class="st0" d="M204.9,35.1C182.2,12.5,152.1,0,120,0c-0.6,0-1.1,0-1.7,0C86.9,0.4,57.3,13,35,35.5C12.7,57.9,0.3,87.6,0,119
		c-0.2,25,7.2,49.1,21.5,69.6l34.3,50l56,81.6c1.9,2.7,4.9,4.3,8.2,4.3c3.3,0,6.4-1.6,8.2-4.3l56-81.6l34.3-50
		c14.1-20.2,21.5-43.9,21.5-68.5C240,87.9,227.5,57.8,204.9,35.1z"/>
</g>
<g id="Icon">
	<g>
		<path class="st1" d="M142.7,108.6L138,96.1l-8-21.3l-3-7.9c-0.7-1.7-2.2-2.6-3.7-2.6c-1.5,0-3.1,0.9-3.7,2.6l-1.8,4.7l-6.4,16.9
			l-2.8,7.3c2.5,3.8,3.9,8.3,3.9,13.2c0,1.7-0.2,3.4-0.5,5h5.7v8c0,1.1,0.9,2,2,2h7c1.1,0,2-0.9,2-2v-8h10.2
			C141.7,114,143.7,111.2,142.7,108.6z"/>
		<path class="st1" d="M102.3,101c-0.8-1.4-1.8-2.6-2.9-3.6c-2.9-2.7-6.7-4.3-10.9-4.3c-8.8,0-16,7.2-16,16c0,7.1,4.6,13.1,11,15.2
			v8.8c0,1.1,0.9,2,2,2h6c1.1,0,2-0.9,2-2v-8.8c2.7-0.9,5.1-2.5,6.9-4.5c0.9-1,1.7-2.1,2.3-3.3c0.7-1.3,1.2-2.7,1.5-4.2
			c0.2-1,0.3-2.1,0.3-3.2c0-0.7-0.1-1.4-0.1-2C104.1,104.8,103.4,102.8,102.3,101z"/>
	</g>
	<g>
		<path class="st2" d="M103.6,86.4l6.4-16.8C98,66.3,89.7,63.7,89,61.4c-1.8-6,39.3-21.7,56.9-28.1c-4.5-1.3-9.2-2.3-13.9-2.9
			c-19.8,4.8-72,19.1-70.3,35.4C62.7,74.2,81.8,80.4,103.6,86.4z"/>
		<path class="st2" d="M203.7,112.8c-4.4-16.1-35.5-27.2-64.3-35.3l8.3,22.1c11.6,4.5,19.6,9.5,19.4,15.7
			c-0.4,17.2-90.1,34.2-130.2,40.9c3.6,8.2,8.3,15.8,14.2,22.7c8.2,9.5,18.2,17.3,29.4,22.7C111.6,188.1,211.7,142.2,203.7,112.8z
			 M151.2,147.4c-2.8,1.3-4,3.5-5.6,6.4c-2.1,3.9-4.8,8.8-12,10.9c-7.2,2-12.1-0.8-15.9-3c-3.4-1.9-5.8-3.3-9.8-2.2
			c-4,1.1-5.3,3.6-7.2,7c-2.1,3.9-4.8,8.8-12,10.9c-7.2,2-12.1-0.8-15.9-3c-2.9-1.7-5.1-2.9-8.1-2.6c-1,0.1-1.9-0.5-2.1-1.4
			l-1.1-3.9c-0.3-1.2,0.4-2.3,1.6-2.5c6.1-1,10.3,1.5,13.8,3.5c3.4,1.9,5.8,3.3,9.8,2.2c4-1.1,5.3-3.6,7.2-7
			c2.1-3.9,4.8-8.8,12-10.9c7.2-2,12.1,0.8,15.9,3c3.4,1.9,5.8,3.3,9.8,2.2c4-1.1,5.3-3.6,7.2-7c1.9-3.5,4.2-7.8,9.9-10.2
			c1.1-0.5,2.4,0.2,2.7,1.3l1.1,3.9C152.6,146,152.1,147,151.2,147.4z"/>
	</g>
</g>
<g id="Pin_und_Zahl">
	<path class="st3" d="M118.4,8C57.8,8.9,8.5,58.5,8,119c-0.2,24.2,7.3,46.6,20.1,65l34.3,50l56,81.6c0.8,1.2,2.5,1.2,3.3,0l56-81.6
		l34.3-50c12.7-18.1,20.1-40.2,20.1-64C232,57.6,181,7.1,118.4,8z M194.9,184c-11.1,12.9-25.4,22.9-41.7,28.8
		c-10.1-5.6-21.3-8.8-33.1-8.8s-23,3.1-33.1,8.8c-16.3-5.8-30.7-15.9-41.7-28.8c-15.3-17.9-24.4-41.4-23.6-67.1
		c1.6-52.4,44.6-94.7,97.1-95.4c55-0.8,99.9,43.6,99.9,98.5C218.5,144.4,209.6,166.8,194.9,184z"/>
	<g>
		<path class="st0" d="M97.3,229.8l-9.8,0.9V224l10.7-3.1h8.9V269h-9.8V229.8z"/>
		<path class="st0" d="M135.9,239.2c1.6,0.2,3.2,0.6,4.8,1.2c1.6,0.6,3,1.4,4.3,2.6c1.3,1.1,2.3,2.5,3,4.2c0.8,1.7,1.2,3.8,1.2,6.2
			c0,2.8-0.5,5.1-1.5,7.2c-1,2-2.3,3.7-4.1,5.1c-1.7,1.4-3.8,2.4-6.1,3c-2.4,0.7-4.9,1-7.6,1c-1.1,0-2.3-0.1-3.6-0.2
			c-1.3-0.1-2.6-0.3-4-0.6c-1.4-0.3-2.7-0.6-4.1-1c-1.4-0.4-2.6-0.9-3.8-1.5l2.5-7.1c2.8,0.9,5,1.6,6.8,1.9c1.8,0.3,3.4,0.5,4.8,0.5
			c3.3,0,5.9-0.7,7.7-2.1c1.8-1.4,2.8-3.4,2.8-6.2c0-2.2-0.9-4.1-2.6-5.5c-1.7-1.4-4.5-2.1-8.4-2.1c-0.6,0-1.1,0-1.7,0.1
			c-0.6,0-1.2,0.1-1.9,0.2c0-0.3-0.1-0.7-0.2-1.2c-0.1-0.5-0.2-1-0.3-1.5c-0.1-0.5-0.2-1-0.4-1.5c-0.1-0.5-0.2-0.9-0.2-1.2
			c0.8-0.8,1.8-1.8,2.7-2.7c1-1,2-2,3-3c1-1,2-2,3-3c1-1,1.9-1.9,2.8-2.7c0-0.1-0.1-0.2-0.1-0.3c0-0.1-0.1-0.2-0.1-0.3h-18.1v-7.7
			h30.2c0.1,0.3,0.2,0.7,0.3,1.3c0.1,0.6,0.2,1.2,0.4,1.8c0.1,0.6,0.3,1.2,0.3,1.8c0.1,0.6,0.2,1,0.3,1.3l-12.4,11.7L135.9,239.2z"
			/>
	</g>
</g>
</svg>
